<svg width="24" height="25" viewBox="0 0 24 25" fill="none" xmlns="http://www.w3.org/2000/svg">
<path d="M21 23.25H3C2.59 23.25 2.25 22.91 2.25 22.5C2.25 22.09 2.59 21.75 3 21.75H21C21.41 21.75 21.75 22.09 21.75 22.5C21.75 22.91 21.41 23.25 21 23.25Z" fill="#718096"/>
<path d="M5.59998 20.2489H4C3.04 20.2489 2.25 19.4589 2.25 18.4989V9.87891C2.25 8.91891 3.04 8.12891 4 8.12891H5.59998C6.55998 8.12891 7.34998 8.91891 7.34998 9.87891V18.4989C7.34998 19.4589 6.55998 20.2489 5.59998 20.2489ZM4 9.6189C3.86 9.6189 3.75 9.7289 3.75 9.8689V18.4989C3.75 18.6389 3.86 18.7489 4 18.7489H5.59998C5.73998 18.7489 5.84998 18.6389 5.84998 18.4989V9.87891C5.84998 9.73891 5.73998 9.62891 5.59998 9.62891H4V9.6189Z" fill="#718096"/>
<path d="M12.8002 20.2514H11.2002C10.2402 20.2514 9.4502 19.4614 9.4502 18.5014V6.69141C9.4502 5.73141 10.2402 4.94141 11.2002 4.94141H12.8002C13.7602 4.94141 14.5502 5.73141 14.5502 6.69141V18.5014C14.5502 19.4614 13.7602 20.2514 12.8002 20.2514ZM11.2002 6.44141C11.0602 6.44141 10.9502 6.55141 10.9502 6.69141V18.5014C10.9502 18.6414 11.0602 18.7514 11.2002 18.7514H12.8002C12.9402 18.7514 13.0502 18.6414 13.0502 18.5014V6.69141C13.0502 6.55141 12.9402 6.44141 12.8002 6.44141H11.2002Z" fill="#718096"/>
<path d="M19.9999 20.25H18.3999C17.4399 20.25 16.6499 19.46 16.6499 18.5V3.5C16.6499 2.54 17.4399 1.75 18.3999 1.75H19.9999C20.9599 1.75 21.7499 2.54 21.7499 3.5V18.5C21.7499 19.46 20.9599 20.25 19.9999 20.25ZM18.3999 3.25C18.2599 3.25 18.1499 3.36 18.1499 3.5V18.5C18.1499 18.64 18.2599 18.75 18.3999 18.75H19.9999C20.1399 18.75 20.2499 18.64 20.2499 18.5V3.5C20.2499 3.36 20.1399 3.25 19.9999 3.25H18.3999Z" fill="#718096"/>
</svg>
