<svg width="26" height="37" viewBox="0 0 26 37" fill="none" xmlns="http://www.w3.org/2000/svg">
<path d="M17.9276 8.44922L16.933 9.02439L17.6346 10.1416L18.2207 10.8285L17.3292 10.663L16.0168 10.6009V11.7554L17.3292 11.6975L18.2207 11.532L17.6346 12.2147L16.933 13.332L17.9276 13.9113L18.5384 12.732L18.8438 11.8754L19.1492 12.732L19.76 13.9113L20.7588 13.332L20.053 12.2147L19.467 11.532L20.3584 11.6975L21.6708 11.7554V10.6009L20.3584 10.663L19.467 10.8285L20.053 10.1416L20.7588 9.02439L19.76 8.44922L19.1492 9.62439L18.8438 10.4851L18.5384 9.62439L17.9276 8.44922Z" fill="black"/>
<path d="M8.09714 16.1983V15.0977H5.89746V16.1983C5.89746 20.088 9.0546 23.2577 12.934 23.2577H14.0317V21.0521H12.934C10.2679 21.0521 8.09714 18.8756 8.09714 16.1983Z" fill="black"/>
<path d="M6.99923 12.4377C7.69257 12.4377 8.25384 11.875 8.25384 11.1798C8.25384 10.4846 7.69257 9.92188 6.99923 9.92188C6.3059 9.92188 5.74463 10.4846 5.74463 11.1798C5.74463 11.8708 6.3059 12.4377 6.99923 12.4377Z" fill="black"/>
<path d="M18.8067 2.20138C16.7349 2.20138 14.8902 3.13655 13.6149 4.58069C12.6863 1.99862 10.2844 0.132414 7.42032 0H0V14.9131C0 21.6993 5.23302 27.2234 11.8568 27.7903V34.9076C11.8568 34.9159 11.8568 34.9241 11.8568 34.9324V36.0331H14.9314C18.266 36.0331 20.9816 33.3145 20.9816 29.9669V28.8662H17.9029C16.4419 28.8662 15.1006 29.3876 14.0524 30.2566V27.7903C20.3956 27.2441 25.4924 22.1545 25.9092 15.7614V15.3352V2.20138H18.8067ZM17.9029 31.0717H18.6168C18.1422 32.669 16.6689 33.8317 14.9273 33.8317H14.2133C14.6879 32.2386 16.1613 31.0717 17.9029 31.0717ZM23.7137 14.9131C23.7137 20.8593 18.8851 25.7007 12.9546 25.7007C7.02 25.7007 2.19556 20.8593 2.19556 14.9131V2.16828H7.10254C9.72317 2.16828 11.8568 4.30759 11.8568 6.93517V11.6234V14.9586H14.0524V11.6234V9.16965C14.0524 6.54207 16.186 4.40276 18.8067 4.40276H23.7137V14.9131Z" fill="black"/>
</svg>
