<svg width="24" height="25" viewBox="0 0 24 25" fill="none" xmlns="http://www.w3.org/2000/svg">
<path d="M15.8101 20.6786C15.5501 20.6786 15.2801 20.6686 14.9901 20.6385C14.4701 20.5985 13.8801 20.4986 13.2701 20.3486L11.5901 19.9486C6.98007 18.8586 5.47007 16.4186 6.55007 11.8186L7.53007 7.62855C7.75007 6.67855 8.01007 5.90855 8.33007 5.26855C10.0501 1.71855 13.3401 2.03855 15.6801 2.58855L17.3501 2.97855C19.6901 3.52855 21.1701 4.39855 22.0001 5.72855C22.8201 7.05855 22.9501 8.76855 22.4001 11.1086L21.4201 15.2886C20.5601 18.9486 18.7701 20.6786 15.8101 20.6786ZM13.1201 3.74855C11.4501 3.74855 10.3901 4.43855 9.68007 5.91855C9.42007 6.45855 9.19007 7.12855 8.99007 7.96855L8.01007 12.1586C7.12007 15.9385 8.15007 17.5886 11.9301 18.4886L13.6101 18.8885C14.1501 19.0185 14.6601 19.0985 15.1201 19.1385C17.8401 19.4086 19.1901 18.2185 19.9501 14.9486L20.9301 10.7686C21.3801 8.83855 21.3201 7.48855 20.7201 6.51855C20.1201 5.54855 18.9401 4.88855 17.0001 4.43855L15.3301 4.04855C14.5001 3.84855 13.7601 3.74855 13.1201 3.74855Z" fill="#718096"/>
<path d="M8.33005 22.7516C5.76005 22.7516 4.12005 21.2116 3.07005 17.9616L1.79005 14.0116C0.370052 9.61164 1.64005 7.13164 6.02005 5.71164L7.60005 5.20164C8.12005 5.04164 8.51005 4.93164 8.86005 4.87164C9.15005 4.81164 9.43005 4.92164 9.60005 5.15164C9.77005 5.38164 9.80005 5.68164 9.68005 5.94164C9.42005 6.47164 9.19005 7.14164 9.00005 7.98164L8.02005 12.1716C7.13005 15.9516 8.16005 17.6016 11.9401 18.5016L13.6201 18.9016C14.1601 19.0316 14.6701 19.1116 15.1301 19.1516C15.4501 19.1816 15.7101 19.4016 15.8001 19.7116C15.8801 20.0216 15.7601 20.3416 15.5001 20.5216C14.8401 20.9716 14.0101 21.3516 12.9601 21.6916L11.3801 22.2116C10.2301 22.5716 9.23005 22.7516 8.33005 22.7516ZM7.78005 6.72164L6.49005 7.14164C2.92005 8.29164 2.07005 9.97164 3.22005 13.5516L4.50005 17.5016C5.66005 21.0716 7.34005 21.9316 10.9101 20.7816L12.4901 20.2616C12.5501 20.2416 12.6001 20.2216 12.6601 20.2016L11.6001 19.9516C6.99005 18.8616 5.48005 16.4216 6.56005 11.8216L7.54005 7.63164C7.61005 7.31164 7.69005 7.00164 7.78005 6.72164Z" fill="#718096"/>
<path d="M17.4901 11.0117C17.4301 11.0117 17.3701 11.0017 17.3001 10.9917L12.4501 9.76173C12.0501 9.66173 11.8101 9.25173 11.9101 8.85173C12.0101 8.45173 12.4201 8.21173 12.8201 8.31173L17.6701 9.54173C18.0701 9.64173 18.3101 10.0517 18.2101 10.4517C18.1301 10.7817 17.8201 11.0117 17.4901 11.0117Z" fill="#718096"/>
<path d="M14.5599 14.3889C14.4999 14.3889 14.4399 14.3789 14.3699 14.3689L11.4599 13.6289C11.0599 13.5289 10.8199 13.1189 10.9199 12.7189C11.0199 12.3189 11.4299 12.0789 11.8299 12.1789L14.7399 12.9189C15.1399 13.0189 15.3799 13.4289 15.2799 13.8289C15.1999 14.1689 14.8999 14.3889 14.5599 14.3889Z" fill="#718096"/>
</svg>
