<svg width="24" height="25" viewBox="0 0 24 25" fill="none" xmlns="http://www.w3.org/2000/svg">
<path d="M12.0201 21.0319C9.69011 21.0319 7.36011 20.6619 5.15011 19.9219C4.31011 19.6319 3.67011 19.0419 3.39011 18.2719C3.10011 17.5019 3.20011 16.6519 3.66011 15.8919L4.81011 13.9819C5.05011 13.5819 5.27011 12.7819 5.27011 12.3119V9.42188C5.27011 5.70187 8.30011 2.67188 12.0201 2.67188C15.7401 2.67188 18.7701 5.70187 18.7701 9.42188V12.3119C18.7701 12.7719 18.9901 13.5819 19.2301 13.9919L20.3701 15.8919C20.8001 16.6119 20.8801 17.4819 20.5901 18.2719C20.3001 19.0619 19.6701 19.6619 18.8801 19.9219C16.6801 20.6619 14.3501 21.0319 12.0201 21.0319ZM12.0201 4.17188C9.13011 4.17188 6.77011 6.52187 6.77011 9.42188V12.3119C6.77011 13.0419 6.47011 14.1219 6.10011 14.7519L4.95011 16.6619C4.73011 17.0319 4.67011 17.4219 4.80011 17.7519C4.92011 18.0919 5.22011 18.3519 5.63011 18.4919C9.81011 19.8919 14.2401 19.8919 18.4201 18.4919C18.7801 18.3719 19.0601 18.1019 19.1901 17.7419C19.3201 17.3819 19.2901 16.9919 19.0901 16.6619L17.9401 14.7519C17.5601 14.1019 17.2701 13.0319 17.2701 12.3019V9.42188C17.2701 6.52187 14.9201 4.17188 12.0201 4.17188Z" fill="#718096"/>
<path d="M13.8801 4.43969C13.8101 4.43969 13.7401 4.42969 13.6701 4.40969C13.3801 4.32969 13.1001 4.26969 12.8301 4.22969C11.9801 4.11969 11.1601 4.17969 10.3901 4.40969C10.1101 4.49969 9.81011 4.40969 9.62011 4.19969C9.43011 3.98969 9.37011 3.68969 9.48011 3.41969C9.89011 2.36969 10.8901 1.67969 12.0301 1.67969C13.1701 1.67969 14.1701 2.35969 14.5801 3.41969C14.6801 3.68969 14.6301 3.98969 14.4401 4.19969C14.2901 4.35969 14.0801 4.43969 13.8801 4.43969Z" fill="#718096"/>
<path d="M12.02 23.3086C11.03 23.3086 10.07 22.9086 9.37002 22.2086C8.67002 21.5086 8.27002 20.5486 8.27002 19.5586H9.77002C9.77002 20.1486 10.01 20.7286 10.43 21.1486C10.85 21.5686 11.43 21.8086 12.02 21.8086C13.26 21.8086 14.27 20.7986 14.27 19.5586H15.77C15.77 21.6286 14.09 23.3086 12.02 23.3086Z" fill="#718096"/>
</svg>
