<svg width="48" height="67" viewBox="0 0 48 67" fill="none" xmlns="http://www.w3.org/2000/svg">
<path d="M33.0972 15.4912L31.261 16.5457L32.5562 18.594L33.6382 19.8533L31.9924 19.5498L29.5696 19.436V21.5526L31.9924 21.4464L33.6382 21.1429L32.5562 22.3947L31.261 24.4429L33.0972 25.505L34.2248 23.3429L34.7886 21.7726L35.3524 23.3429L36.4801 25.505L38.3239 24.4429L37.021 22.3947L35.9391 21.1429L37.5848 21.4464L40.0077 21.5526V19.436L37.5848 19.5498L35.9391 19.8533L37.021 18.594L38.3239 16.5457L36.4801 15.4912L35.3524 17.6457L34.7886 19.2236L34.2248 17.6457L33.0972 15.4912Z" fill="#5337c3"/>
<path d="M14.9486 29.7005V27.6826H10.8876V29.7005C10.8876 36.8316 16.7162 42.6426 23.8781 42.6426H25.9048V38.5992H23.8781C18.9562 38.5992 14.9486 34.6088 14.9486 29.7005Z" fill="#5337c3"/>
<path d="M12.9218 22.8048C14.2018 22.8048 15.238 21.7731 15.238 20.4986C15.238 19.2241 14.2018 18.1924 12.9218 18.1924C11.6418 18.1924 10.6057 19.2241 10.6057 20.4986C10.6057 21.7655 11.6418 22.8048 12.9218 22.8048Z" fill="#5337c3"/>
<path d="M34.72 4.03586C30.8952 4.03586 27.4895 5.75034 25.1352 8.39793C23.421 3.66414 18.9867 0.242759 13.699 0H0V27.3407C0 39.7821 9.66095 49.9097 21.8895 50.949V63.9972C21.8895 64.0124 21.8895 64.0276 21.8895 64.0428V66.0607H27.5657C33.7219 66.0607 38.7352 61.0765 38.7352 54.9393V52.9214H33.0514C30.3543 52.9214 27.8781 53.8772 25.9429 55.4703V50.949C37.6533 49.9476 47.0629 40.6166 47.8324 28.8959V28.1145V4.03586H34.72ZM33.0514 56.9648H34.3695C33.4933 59.8931 30.7733 62.0248 27.5581 62.0248H26.24C27.1162 59.1041 29.8362 56.9648 33.0514 56.9648ZM43.779 27.3407C43.779 38.2421 34.8648 47.1179 23.9162 47.1179C12.96 47.1179 4.05333 38.2421 4.05333 27.3407V3.97517H13.1124C17.9505 3.97517 21.8895 7.89724 21.8895 12.7145V21.3097V27.4241H25.9429V21.3097V16.811C25.9429 11.9938 29.8819 8.07172 34.72 8.07172H43.779V27.3407Z" fill="#5337c3"/>
</svg>