<svg width="16" height="16" viewBox="0 0 16 16" fill="none" xmlns="http://www.w3.org/2000/svg">
<path d="M7.99994 15.1743C7.27327 15.1743 6.55327 14.9609 5.9866 14.5409L3.11993 12.4009C2.35993 11.8343 1.7666 10.6543 1.7666 9.7076V4.7476C1.7666 3.72094 2.51993 2.6276 3.4866 2.2676L6.81327 1.02094C7.47327 0.774271 8.51327 0.774271 9.17327 1.02094L12.5066 2.2676C13.4733 2.6276 14.2266 3.72094 14.2266 4.7476V9.70094C14.2266 10.6476 13.6333 11.8276 12.8733 12.3943L10.0066 14.5343C9.4466 14.9609 8.7266 15.1743 7.99994 15.1743ZM7.1666 1.96094L3.83994 3.2076C3.2666 3.42094 2.7666 4.14094 2.7666 4.75427V9.7076C2.7666 10.3409 3.21327 11.2276 3.71327 11.6009L6.57993 13.7409C7.3466 14.3143 8.6466 14.3143 9.41327 13.7409L12.2799 11.6009C12.7866 11.2209 13.2266 10.3343 13.2266 9.7076V4.7476C13.2266 4.14094 12.7266 3.42094 12.1533 3.20094L8.8266 1.95427C8.3866 1.79427 7.61327 1.79427 7.1666 1.96094Z" fill="#000"/>
<path d="M8.00033 8.83464C6.98699 8.83464 6.16699 8.01464 6.16699 7.0013C6.16699 5.98797 6.98699 5.16797 8.00033 5.16797C9.01366 5.16797 9.83366 5.98797 9.83366 7.0013C9.83366 8.01464 9.01366 8.83464 8.00033 8.83464ZM8.00033 6.16797C7.54033 6.16797 7.16699 6.5413 7.16699 7.0013C7.16699 7.4613 7.54033 7.83464 8.00033 7.83464C8.46033 7.83464 8.83366 7.4613 8.83366 7.0013C8.83366 6.5413 8.46033 6.16797 8.00033 6.16797Z" fill="#000"/>
<path d="M8 10.832C7.72667 10.832 7.5 10.6054 7.5 10.332V8.33203C7.5 8.0587 7.72667 7.83203 8 7.83203C8.27333 7.83203 8.5 8.0587 8.5 8.33203V10.332C8.5 10.6054 8.27333 10.832 8 10.832Z" fill="#000"/>
</svg>
