<svg width="16" height="16" viewBox="0 0 16 16" fill="none" xmlns="http://www.w3.org/2000/svg">
<path d="M5.33325 3.83203C5.05992 3.83203 4.83325 3.60536 4.83325 3.33203V1.33203C4.83325 1.0587 5.05992 0.832031 5.33325 0.832031C5.60659 0.832031 5.83325 1.0587 5.83325 1.33203V3.33203C5.83325 3.60536 5.60659 3.83203 5.33325 3.83203Z" fill="#718096"/>
<path d="M10.6667 3.83203C10.3934 3.83203 10.1667 3.60536 10.1667 3.33203V1.33203C10.1667 1.0587 10.3934 0.832031 10.6667 0.832031C10.9401 0.832031 11.1667 1.0587 11.1667 1.33203V3.33203C11.1667 3.60536 10.9401 3.83203 10.6667 3.83203Z" fill="#718096"/>
<path d="M5.66667 9.66557C5.58 9.66557 5.49333 9.64558 5.41333 9.61225C5.32667 9.57891 5.26 9.53223 5.19333 9.47223C5.07333 9.34557 5 9.17891 5 8.99891C5 8.91224 5.02 8.82557 5.05333 8.74557C5.08667 8.66557 5.13333 8.59224 5.19333 8.52558C5.26 8.46558 5.32667 8.4189 5.41333 8.38556C5.65333 8.28556 5.95333 8.33891 6.14 8.52558C6.26 8.65224 6.33333 8.82557 6.33333 8.99891C6.33333 9.03891 6.32667 9.08558 6.32 9.13225C6.31333 9.17225 6.3 9.21224 6.28 9.25224C6.26667 9.29224 6.24667 9.33224 6.22 9.37224C6.2 9.40557 6.16667 9.4389 6.14 9.47223C6.01333 9.59223 5.84 9.66557 5.66667 9.66557Z" fill="#718096"/>
<path d="M7.99992 9.66854C7.91325 9.66854 7.82658 9.64854 7.74658 9.61521C7.65992 9.58188 7.59325 9.5352 7.52659 9.4752C7.40659 9.34853 7.33325 9.18187 7.33325 9.00187C7.33325 8.9152 7.35325 8.82853 7.38659 8.74853C7.41992 8.66853 7.46659 8.59521 7.52659 8.52854C7.59325 8.46854 7.65992 8.42186 7.74658 8.38853C7.98658 8.28186 8.28658 8.34187 8.47325 8.52854C8.59325 8.65521 8.66659 8.82854 8.66659 9.00187C8.66659 9.04187 8.65992 9.08854 8.65325 9.13521C8.64659 9.17521 8.63325 9.21521 8.61325 9.25521C8.59992 9.29521 8.57992 9.3352 8.55325 9.3752C8.53325 9.40853 8.49992 9.44186 8.47325 9.4752C8.34658 9.5952 8.17325 9.66854 7.99992 9.66854Z" fill="#718096"/>
<path d="M10.3334 9.66854C10.2467 9.66854 10.1601 9.64854 10.0801 9.61521C9.99341 9.58188 9.92675 9.5352 9.86008 9.4752C9.83342 9.44186 9.80675 9.40853 9.78008 9.3752C9.75341 9.3352 9.73342 9.29521 9.72008 9.25521C9.70008 9.21521 9.68675 9.17521 9.68008 9.13521C9.67342 9.08854 9.66675 9.04187 9.66675 9.00187C9.66675 8.82854 9.74008 8.65521 9.86008 8.52854C9.92675 8.46854 9.99341 8.42186 10.0801 8.38853C10.3267 8.28186 10.6201 8.34187 10.8067 8.52854C10.9267 8.65521 11.0001 8.82854 11.0001 9.00187C11.0001 9.04187 10.9934 9.08854 10.9867 9.13521C10.9801 9.17521 10.9667 9.21521 10.9467 9.25521C10.9334 9.29521 10.9134 9.3352 10.8867 9.3752C10.8667 9.40853 10.8334 9.44186 10.8067 9.4752C10.6801 9.5952 10.5067 9.66854 10.3334 9.66854Z" fill="#718096"/>
<path d="M5.66667 12.0008C5.58 12.0008 5.49333 11.9808 5.41333 11.9475C5.33333 11.9141 5.26 11.8674 5.19333 11.8074C5.07333 11.6808 5 11.5074 5 11.3341C5 11.2474 5.02 11.1608 5.05333 11.0808C5.08667 10.9941 5.13333 10.9208 5.19333 10.8608C5.44 10.6141 5.89333 10.6141 6.14 10.8608C6.26 10.9874 6.33333 11.1608 6.33333 11.3341C6.33333 11.5074 6.26 11.6808 6.14 11.8074C6.01333 11.9274 5.84 12.0008 5.66667 12.0008Z" fill="#718096"/>
<path d="M7.99992 12.0008C7.82659 12.0008 7.65325 11.9274 7.52659 11.8074C7.40659 11.6808 7.33325 11.5074 7.33325 11.3341C7.33325 11.2474 7.35325 11.1608 7.38659 11.0808C7.41992 10.9941 7.46659 10.9208 7.52659 10.8608C7.77325 10.6141 8.22658 10.6141 8.47325 10.8608C8.53325 10.9208 8.57992 10.9941 8.61325 11.0808C8.64658 11.1608 8.66659 11.2474 8.66659 11.3341C8.66659 11.5074 8.59325 11.6808 8.47325 11.8074C8.34658 11.9274 8.17325 12.0008 7.99992 12.0008Z" fill="#718096"/>
<path d="M10.3334 12.0019C10.1601 12.0019 9.98675 11.9286 9.86008 11.8086C9.80008 11.7486 9.75342 11.6752 9.72008 11.5886C9.68675 11.5086 9.66675 11.4219 9.66675 11.3352C9.66675 11.2486 9.68675 11.1619 9.72008 11.0819C9.75342 10.9952 9.80008 10.9219 9.86008 10.8619C10.0134 10.7086 10.2467 10.6352 10.4601 10.6819C10.5067 10.6886 10.5467 10.7019 10.5867 10.7219C10.6267 10.7352 10.6667 10.7552 10.7067 10.7819C10.7401 10.8019 10.7734 10.8352 10.8067 10.8619C10.9267 10.9886 11.0001 11.1619 11.0001 11.3352C11.0001 11.5086 10.9267 11.6819 10.8067 11.8086C10.6801 11.9286 10.5067 12.0019 10.3334 12.0019Z" fill="#718096"/>
<path d="M13.6666 6.55859H2.33325C2.05992 6.55859 1.83325 6.33193 1.83325 6.05859C1.83325 5.78526 2.05992 5.55859 2.33325 5.55859H13.6666C13.9399 5.55859 14.1666 5.78526 14.1666 6.05859C14.1666 6.33193 13.9399 6.55859 13.6666 6.55859Z" fill="#718096"/>
<path d="M10.6667 15.1654H5.33333C2.9 15.1654 1.5 13.7654 1.5 11.332V5.66536C1.5 3.23203 2.9 1.83203 5.33333 1.83203H10.6667C13.1 1.83203 14.5 3.23203 14.5 5.66536V11.332C14.5 13.7654 13.1 15.1654 10.6667 15.1654ZM5.33333 2.83203C3.42667 2.83203 2.5 3.7587 2.5 5.66536V11.332C2.5 13.2387 3.42667 14.1654 5.33333 14.1654H10.6667C12.5733 14.1654 13.5 13.2387 13.5 11.332V5.66536C13.5 3.7587 12.5733 2.83203 10.6667 2.83203H5.33333Z" fill="#718096"/>
</svg>
