<svg width="16" height="16" viewBox="0 0 16 16" fill="none" xmlns="http://www.w3.org/2000/svg">
    <path d="M7.99992 15.1654C4.04659 15.1654 0.833252 11.952 0.833252 7.9987C0.833252 4.04536 4.04659 0.832031 7.99992 0.832031C11.9533 0.832031 15.1666 4.04536 15.1666 7.9987C15.1666 11.952 11.9533 15.1654 7.99992 15.1654ZM7.99992 1.83203C4.59992 1.83203 1.83325 4.5987 1.83325 7.9987C1.83325 11.3987 4.59992 14.1654 7.99992 14.1654C11.3999 14.1654 14.1666 11.3987 14.1666 7.9987C14.1666 4.5987 11.3999 1.83203 7.99992 1.83203Z" fill="#000" />
    <path d="M10.4733 10.6211C10.3867 10.6211 10.3 10.6011 10.22 10.5478L8.15334 9.31448C7.64001 9.00781 7.26001 8.33448 7.26001 7.74115V5.00781C7.26001 4.73448 7.48668 4.50781 7.76001 4.50781C8.03334 4.50781 8.26001 4.73448 8.26001 5.00781V7.74115C8.26001 7.98115 8.46001 8.33448 8.66668 8.45448L10.7333 9.68781C10.9733 9.82781 11.0467 10.1345 10.9067 10.3745C10.8067 10.5345 10.64 10.6211 10.4733 10.6211Z" fill="#000" />
</svg>
