<svg width="19" height="18" viewBox="0 0 19 18" fill="none" xmlns="http://www.w3.org/2000/svg">
    <path d="M6.13166 13.5C5.89266 13.5 5.65367 13.412 5.46499 13.2234C5.10021 12.8587 5.10021 12.2552 5.46499 11.8905L12.5845 4.77349C12.9493 4.40884 13.553 4.40884 13.9178 4.77349C14.2826 5.13814 14.2826 5.7417 13.9178 6.10636L6.79832 13.2234C6.62222 13.412 6.37065 13.5 6.13166 13.5Z" fill="black" />
    <path d="M13.2512 13.5C13.0122 13.5 12.7732 13.412 12.5845 13.2234L5.46499 6.10636C5.10021 5.7417 5.10021 5.13814 5.46499 4.77349C5.82977 4.40884 6.43354 4.40884 6.79832 4.77349L13.9178 11.8905C14.2826 12.2552 14.2826 12.8587 13.9178 13.2234C13.7291 13.412 13.4901 13.5 13.2512 13.5Z" fill="black" />
</svg>