<svg width="42" height="24" viewBox="0 0 42 24" fill="none" xmlns="http://www.w3.org/2000/svg">
<path d="M24.19 1.94012C24.82 1.94012 25.45 2.09012 26.05 2.41012L37.64 8.51012C38.94 9.19012 39.75 10.5301 39.75 12.0001C39.75 13.4701 38.94 14.8101 37.64 15.4901L26.05 21.5901C24.5 22.4001 22.7 22.1401 21.45 20.9201C20.2 19.7001 19.9 17.9001 20.68 16.3401L22.3 13.1001C22.64 12.4201 22.64 11.6001 22.3 10.9101L20.68 7.67012C19.9 6.11012 20.2 4.31012 21.45 3.09012C22.22 2.33012 23.19 1.94012 24.19 1.94012ZM24.2 20.5601C24.56 20.5601 24.95 20.4701 25.35 20.2601L36.94 14.1601C37.76 13.7301 38.25 12.9201 38.25 12.0001C38.25 11.0801 37.76 10.2701 36.94 9.84012L25.35 3.74012C24.19 3.13012 23.11 3.55012 22.5 4.16012C21.88 4.76012 21.44 5.83012 22.02 7.00012L23.64 10.2401C24.19 11.3501 24.19 12.6601 23.64 13.7701L22.02 17.0101C21.43 18.1801 21.88 19.2501 22.5 19.8501C22.9 20.2401 23.5 20.5601 24.2 20.5601Z" fill="black"/>
<path d="M6.19 1.94012C6.82 1.94012 7.45 2.09012 8.05 2.41012L19.64 8.51012C20.94 9.19012 21.75 10.5301 21.75 12.0001C21.75 13.4701 20.94 14.8101 19.64 15.4901L8.05 21.5901C6.5 22.4001 4.7 22.1401 3.45 20.9201C2.2 19.7001 1.9 17.9001 2.68 16.3401L4.3 13.1001C4.64 12.4201 4.64 11.6001 4.3 10.9101L2.68 7.67012C1.9 6.11012 2.2 4.31012 3.45 3.09012C4.22 2.33012 5.19 1.94012 6.19 1.94012ZM6.2 20.5601C6.56 20.5601 6.95 20.4701 7.35 20.2601L18.94 14.1601C19.76 13.7301 20.25 12.9201 20.25 12.0001C20.25 11.0801 19.76 10.2701 18.94 9.84012L7.35 3.74012C6.19 3.13012 5.11 3.55012 4.5 4.16012C3.88 4.76012 3.44 5.83012 4.02 7.00012L5.64 10.2401C6.19 11.3501 6.19 12.6601 5.64 13.7701L4.02 17.0101C3.43 18.1801 3.88 19.2501 4.5 19.8501C4.9 20.2401 5.5 20.5601 6.2 20.5601Z" fill="black"/>
</svg>
