<svg width="42" height="24" viewBox="0 0 42 24" fill="none" xmlns="http://www.w3.org/2000/svg">
<path d="M17.81 22.0599C17.18 22.0599 16.55 21.9099 15.95 21.5899L4.36 15.4899C3.06 14.8099 2.25 13.4699 2.25 11.9999C2.25 10.5299 3.06 9.18988 4.36 8.50988L15.95 2.40988C17.5 1.59988 19.3 1.85988 20.55 3.07988C21.8 4.29988 22.1 6.09988 21.32 7.65988L19.7 10.8999C19.36 11.5799 19.36 12.3999 19.7 13.0899L21.32 16.3299C22.1 17.8899 21.8 19.6899 20.55 20.9099C19.78 21.6699 18.81 22.0599 17.81 22.0599ZM17.8 3.43988C17.44 3.43988 17.05 3.52988 16.65 3.73988L5.06 9.83988C4.24 10.2699 3.75 11.0799 3.75 11.9999C3.75 12.9199 4.24 13.7299 5.06 14.1599L16.65 20.2599C17.81 20.8699 18.89 20.4499 19.5 19.8399C20.12 19.2399 20.56 18.1699 19.98 16.9999L18.36 13.7599C17.81 12.6499 17.81 11.3399 18.36 10.2299L19.98 6.98988C20.57 5.81988 20.12 4.74988 19.5 4.14988C19.1 3.75988 18.5 3.43988 17.8 3.43988Z" fill="black"/>
<path d="M35.81 22.0599C35.18 22.0599 34.55 21.9099 33.95 21.5899L22.36 15.4899C21.06 14.8099 20.25 13.4699 20.25 11.9999C20.25 10.5299 21.06 9.18988 22.36 8.50988L33.95 2.40988C35.5 1.59988 37.3 1.85988 38.55 3.07988C39.8 4.29988 40.1 6.09988 39.32 7.65988L37.7 10.8999C37.36 11.5799 37.36 12.3999 37.7 13.0899L39.32 16.3299C40.1 17.8899 39.8 19.6899 38.55 20.9099C37.78 21.6699 36.81 22.0599 35.81 22.0599ZM35.8 3.43988C35.44 3.43988 35.05 3.52988 34.65 3.73988L23.06 9.83988C22.24 10.2699 21.75 11.0799 21.75 11.9999C21.75 12.9199 22.24 13.7299 23.06 14.1599L34.65 20.2599C35.81 20.8699 36.89 20.4499 37.5 19.8399C38.12 19.2399 38.56 18.1699 37.98 16.9999L36.36 13.7599C35.81 12.6499 35.81 11.3399 36.36 10.2299L37.98 6.98988C38.57 5.81988 38.12 4.74988 37.5 4.14988C37.1 3.75988 36.5 3.43988 35.8 3.43988Z" fill="black"/>
</svg>
