<svg width="12" height="12" viewBox="0 0 12 12" fill="none" xmlns="http://www.w3.org/2000/svg">
    <path d="M4.5 8.875C4.45 8.875 4.405 8.865 4.355 8.845C4.215 8.79 4.125 8.65 4.125 8.5V5.5C4.125 5.295 4.295 5.125 4.5 5.125C4.705 5.125 4.875 5.295 4.875 5.5V7.595L5.235 7.235C5.38 7.09 5.62 7.09 5.765 7.235C5.91 7.38 5.91 7.62 5.765 7.765L4.765 8.765C4.695 8.835 4.595 8.875 4.5 8.875Z" fill="black" />
    <path d="M4.49973 8.87375C4.40473 8.87375 4.30973 8.83875 4.23473 8.76375L3.23473 7.76375C3.08973 7.61875 3.08973 7.37875 3.23473 7.23375C3.37973 7.08875 3.61973 7.08875 3.76473 7.23375L4.76473 8.23375C4.90973 8.37875 4.90973 8.61875 4.76473 8.76375C4.68973 8.83875 4.59473 8.87375 4.49973 8.87375Z" fill="black" />
    <path d="M7.5 11.375H4.5C1.785 11.375 0.625 10.215 0.625 7.5V4.5C0.625 1.785 1.785 0.625 4.5 0.625H7C7.205 0.625 7.375 0.795 7.375 1C7.375 1.205 7.205 1.375 7 1.375H4.5C2.195 1.375 1.375 2.195 1.375 4.5V7.5C1.375 9.805 2.195 10.625 4.5 10.625H7.5C9.805 10.625 10.625 9.805 10.625 7.5V5C10.625 4.795 10.795 4.625 11 4.625C11.205 4.625 11.375 4.795 11.375 5V7.5C11.375 10.215 10.215 11.375 7.5 11.375Z" fill="black" />
    <path d="M11 5.37426H9C7.29 5.37426 6.625 4.70926 6.625 2.99926V0.999262C6.625 0.849262 6.715 0.709262 6.855 0.654262C6.995 0.594262 7.155 0.629262 7.265 0.734262L11.265 4.73426C11.37 4.83926 11.405 5.00426 11.345 5.14426C11.285 5.28426 11.15 5.37426 11 5.37426ZM7.375 1.90426V2.99926C7.375 4.28926 7.71 4.62426 9 4.62426H10.095L7.375 1.90426Z" fill="black" />
</svg>