<svg width="12" height="12" viewBox="0 0 12 12" fill="none" xmlns="http://www.w3.org/2000/svg">
  <path d="M2.76999 9.76173C2.46499 9.76173 2.17999 9.65673 1.97499 9.46173C1.71499 9.21673 1.58999 8.84673 1.63499 8.44673L1.81999 6.82673C1.85499 6.52173 2.03999 6.11673 2.25499 5.89673L6.35999 1.55173C7.38499 0.466733 8.45499 0.436734 9.53999 1.46173C10.625 2.48673 10.655 3.55673 9.62999 4.64173L5.52499 8.98673C5.31499 9.21173 4.92499 9.42173 4.61999 9.47173L3.00999 9.74673C2.92499 9.75173 2.84999 9.76173 2.76999 9.76173ZM7.96499 1.45673C7.57999 1.45673 7.24499 1.69673 6.90499 2.05673L2.79999 6.40673C2.69999 6.51173 2.58499 6.76173 2.56499 6.90673L2.37999 8.52673C2.35999 8.69173 2.39999 8.82673 2.48999 8.91173C2.57999 8.99673 2.71499 9.02673 2.87999 9.00173L4.48999 8.72673C4.63499 8.70173 4.87499 8.57173 4.97499 8.46673L9.07999 4.12173C9.69999 3.46173 9.92499 2.85173 9.01999 2.00173C8.61999 1.61673 8.27499 1.45673 7.96499 1.45673Z" fill="#000" />
  <path d="M8.67022 5.47639C8.66022 5.47639 8.64522 5.47639 8.63522 5.47639C7.07522 5.32139 5.82022 4.13639 5.58022 2.58639C5.55022 2.38139 5.69022 2.19139 5.89522 2.15639C6.10022 2.12639 6.29022 2.26639 6.32522 2.47139C6.51522 3.68139 7.49522 4.61139 8.71522 4.73139C8.92022 4.75139 9.07022 4.93639 9.05022 5.14139C9.02522 5.33139 8.86022 5.47639 8.67022 5.47639Z" fill="#000" />
  <path d="M10.5 11.375H1.5C1.295 11.375 1.125 11.205 1.125 11C1.125 10.795 1.295 10.625 1.5 10.625H10.5C10.705 10.625 10.875 10.795 10.875 11C10.875 11.205 10.705 11.375 10.5 11.375Z" fill="#000" />
</svg>
