<svg width="17" height="16" viewBox="0 0 17 16" fill="none" xmlns="http://www.w3.org/2000/svg">
  <path d="M9.49992 11.1654H7.49992C5.66659 11.1654 4.33325 9.83203 4.33325 7.9987V4.61203C4.33325 3.63203 5.13326 2.83203 6.11326 2.83203H10.8932C11.8732 2.83203 12.6733 3.63203 12.6733 4.61203V7.9987C12.6666 9.83203 11.3333 11.1654 9.49992 11.1654ZM6.11326 3.83203C5.68659 3.83203 5.33325 4.1787 5.33325 4.61203V7.9987C5.33325 9.0787 5.99992 10.1654 7.49992 10.1654H9.49992C10.9999 10.1654 11.6666 9.0787 11.6666 7.9987V4.61203C11.6666 4.18536 11.3199 3.83203 10.8866 3.83203H6.11326Z" fill="#000" />
  <path d="M6.83325 3.83203C6.55992 3.83203 6.33325 3.60536 6.33325 3.33203V1.33203C6.33325 1.0587 6.55992 0.832031 6.83325 0.832031C7.10659 0.832031 7.33325 1.0587 7.33325 1.33203V3.33203C7.33325 3.60536 7.10659 3.83203 6.83325 3.83203Z" fill="#000" />
  <path d="M10.1667 3.83203C9.89341 3.83203 9.66675 3.60536 9.66675 3.33203V1.33203C9.66675 1.0587 9.89341 0.832031 10.1667 0.832031C10.4401 0.832031 10.6667 1.0587 10.6667 1.33203V3.33203C10.6667 3.60536 10.4401 3.83203 10.1667 3.83203Z" fill="#000" />
  <path d="M8.5 15.168C8.22667 15.168 8 14.9413 8 14.668V10.668C8 10.3946 8.22667 10.168 8.5 10.168C8.77333 10.168 9 10.3946 9 10.668V14.668C9 14.9413 8.77333 15.168 8.5 15.168Z" fill="#000" />
</svg>
