<svg width="16" height="16" viewBox="0 0 16 16" fill="none" xmlns="http://www.w3.org/2000/svg">
<path d="M6.31328 10.1866C6.18661 10.1866 6.05995 10.1399 5.95995 10.0399C5.41328 9.49328 5.11328 8.76661 5.11328 7.99995C5.11328 6.40661 6.40661 5.11328 7.99995 5.11328C8.76661 5.11328 9.49328 5.41328 10.0399 5.95995C10.1333 6.05328 10.1866 6.17995 10.1866 6.31328C10.1866 6.44661 10.1333 6.57328 10.0399 6.66661L6.66661 10.0399C6.56661 10.1399 6.43995 10.1866 6.31328 10.1866ZM7.99995 6.11328C6.95995 6.11328 6.11328 6.95995 6.11328 7.99995C6.11328 8.33328 6.19995 8.65328 6.35995 8.93328L8.93328 6.35995C8.65328 6.19995 8.33328 6.11328 7.99995 6.11328Z" fill="#425466"/>
<path d="M3.73335 12.3416C3.62002 12.3416 3.50002 12.3016 3.40668 12.2216C2.69335 11.6149 2.05335 10.8683 1.50668 10.0016C0.800018 8.90161 0.800018 7.10828 1.50668 6.00161C3.13335 3.45495 5.50002 1.98828 8.00002 1.98828C9.46668 1.98828 10.9134 2.49495 12.18 3.44828C12.4 3.61495 12.4467 3.92828 12.28 4.14828C12.1134 4.36828 11.8 4.41495 11.58 4.24828C10.4867 3.42161 9.24669 2.98828 8.00002 2.98828C5.84668 2.98828 3.78668 4.28161 2.34668 6.54161C1.84668 7.32161 1.84668 8.68161 2.34668 9.46161C2.84668 10.2416 3.42002 10.9149 4.05335 11.4616C4.26002 11.6416 4.28668 11.9549 4.10668 12.1683C4.01335 12.2816 3.87335 12.3416 3.73335 12.3416Z" fill="#425466"/>
<path d="M7.99996 14.0117C7.11329 14.0117 6.24663 13.8317 5.41329 13.4784C5.15996 13.3717 5.03996 13.0784 5.14663 12.825C5.25329 12.5717 5.54663 12.4517 5.79996 12.5584C6.50663 12.8584 7.24663 13.0117 7.99329 13.0117C10.1466 13.0117 12.2066 11.7184 13.6466 9.45837C14.1466 8.67837 14.1466 7.31837 13.6466 6.53837C13.44 6.21171 13.2133 5.89837 12.9733 5.60504C12.8 5.3917 12.8333 5.07837 13.0466 4.89837C13.26 4.72504 13.5733 4.7517 13.7533 4.9717C14.0133 5.2917 14.2666 5.63837 14.4933 5.99837C15.2 7.09837 15.2 8.89171 14.4933 9.99837C12.8666 12.545 10.5 14.0117 7.99996 14.0117Z" fill="#425466"/>
<path d="M8.45997 10.8469C8.22664 10.8469 8.01331 10.6802 7.96664 10.4402C7.91331 10.1669 8.09331 9.9069 8.36664 9.86023C9.09997 9.7269 9.71331 9.11356 9.84664 8.38023C9.89997 8.1069 10.16 7.93356 10.4333 7.98023C10.7066 8.03356 10.8866 8.29356 10.8333 8.5669C10.62 9.72023 9.69997 10.6336 8.55331 10.8469C8.51997 10.8402 8.49331 10.8469 8.45997 10.8469Z" fill="#425466"/>
<path d="M1.33329 15.1658C1.20663 15.1658 1.07996 15.1192 0.979961 15.0192C0.786628 14.8258 0.786628 14.5058 0.979961 14.3125L5.95996 9.3325C6.15329 9.13917 6.47329 9.13917 6.66663 9.3325C6.85996 9.52583 6.85996 9.84583 6.66663 10.0392L1.68663 15.0192C1.58663 15.1192 1.45996 15.1658 1.33329 15.1658Z" fill="#425466"/>
<path d="M9.68669 6.81427C9.56002 6.81427 9.43335 6.7676 9.33335 6.6676C9.14002 6.47427 9.14002 6.15427 9.33335 5.96094L14.3134 0.980938C14.5067 0.787604 14.8267 0.787604 15.02 0.980938C15.2134 1.17427 15.2134 1.49427 15.02 1.6876L10.04 6.6676C9.94002 6.7676 9.81335 6.81427 9.68669 6.81427Z" fill="#425466"/>
</svg>
