<svg width="67" height="104" viewBox="0 0 67 104" fill="none" xmlns="http://www.w3.org/2000/svg">
<rect x="1" y="1" width="65" height="99.287" rx="3" fill="white" stroke="#718096" stroke-width="2"/>
<path d="M39.8379 18.4966V19.2508C41.093 18.6363 43.1568 18.1059 46.5427 18.1059C49.7208 18.1059 51.8436 18.5847 53.2476 19.1613V18.407C51.8436 17.8305 49.7208 17.353 46.5427 17.353C43.1568 17.353 41.093 17.8821 39.8379 18.4966Z" fill="white"/>
<path d="M52.1748 12.6606H40.9107C40.6261 12.6606 40.3533 12.775 40.1521 12.9785C39.9509 13.182 39.8379 13.458 39.8379 13.7459V17.9063C41.1936 17.2972 43.2936 16.8102 46.5427 16.8102C49.6377 16.8102 51.7725 17.2498 53.2476 17.8141V13.7445C53.2472 13.4569 53.134 13.1812 52.9329 12.978C52.7317 12.7748 52.4591 12.6606 52.1748 12.6606Z" fill="#718096"/>
<path d="M46.5427 18.106C43.1568 18.106 41.093 18.6364 39.8379 19.2509V25.1409C39.8379 25.4287 39.9509 25.7047 40.1521 25.9082C40.3533 26.1118 40.6261 26.2261 40.9107 26.2261H52.1748C52.4593 26.2261 52.7322 26.1118 52.9333 25.9082C53.1345 25.7047 53.2476 25.4287 53.2476 25.1409V19.1613C51.8489 18.5848 49.7208 18.106 46.5427 18.106Z" fill="#CBD5E0"/>
<path d="M49.3464 20.4443H43.7412C43.4376 20.4443 43.1914 20.6933 43.1914 21.0005V22.0776C43.1914 22.3848 43.4376 22.6338 43.7412 22.6338H49.3464C49.6501 22.6338 49.8962 22.3848 49.8962 22.0776V21.0005C49.8962 20.6933 49.6501 20.4443 49.3464 20.4443Z" fill="white"/>
<path d="M39.8379 41.1055V41.8597C41.093 41.2452 43.1568 40.7148 46.5427 40.7148C49.7208 40.7148 51.8436 41.1936 53.2476 41.7702V41.0159C51.8436 40.4394 49.7208 39.9619 46.5427 39.9619C43.1568 39.9619 41.093 40.491 39.8379 41.1055Z" fill="white"/>
<path d="M52.1748 35.2695H40.9107C40.6261 35.2695 40.3533 35.3839 40.1521 35.5874C39.9509 35.7909 39.8379 36.0669 39.8379 36.3547V40.5152C41.1936 39.9061 43.2936 39.4191 46.5427 39.4191C49.6377 39.4191 51.7725 39.8586 53.2476 40.423V36.3534C53.2472 36.0658 53.134 35.7901 52.9329 35.5869C52.7317 35.3837 52.4591 35.2695 52.1748 35.2695Z" fill="#718096"/>
<path d="M46.5427 40.7148C43.1568 40.7148 41.093 41.2452 39.8379 41.8597V47.7498C39.8379 48.0376 39.9509 48.3136 40.1521 48.5171C40.3533 48.7206 40.6261 48.835 40.9107 48.835H52.1748C52.4593 48.835 52.7322 48.7206 52.9333 48.5171C53.1345 48.3136 53.2476 48.0376 53.2476 47.7498V41.7702C51.8489 41.1937 49.7208 40.7148 46.5427 40.7148Z" fill="#CBD5E0"/>
<path d="M49.3464 43.0532H43.7412C43.4376 43.0532 43.1914 43.3022 43.1914 43.6094V44.6865C43.1914 44.9936 43.4376 45.2426 43.7412 45.2426H49.3464C49.6501 45.2426 49.8962 44.9936 49.8962 44.6865V43.6094C49.8962 43.3022 49.6501 43.0532 49.3464 43.0532Z" fill="white"/>
<path d="M39.8379 63.7144V64.4686C41.093 63.8541 43.1568 63.3237 46.5427 63.3237C49.7208 63.3237 51.8436 63.8025 53.2476 64.379V63.6248C51.8436 63.0483 49.7208 62.5708 46.5427 62.5708C43.1568 62.5708 41.093 63.0998 39.8379 63.7144Z" fill="white"/>
<path d="M52.1748 57.8784H40.9107C40.6261 57.8784 40.3533 57.9928 40.1521 58.1963C39.9509 58.3998 39.8379 58.6758 39.8379 58.9636V63.1241C41.1936 62.515 43.2936 62.028 46.5427 62.028C49.6377 62.028 51.7725 62.4675 53.2476 63.0318V58.9623C53.2472 58.6747 53.134 58.399 52.9329 58.1958C52.7317 57.9926 52.4591 57.8784 52.1748 57.8784Z" fill="#718096"/>
<path d="M46.5427 63.3237C43.1568 63.3237 41.093 63.8541 39.8379 64.4686V70.3587C39.8379 70.6465 39.9509 70.9225 40.1521 71.126C40.3533 71.3295 40.6261 71.4439 40.9107 71.4439H52.1748C52.4593 71.4439 52.7322 71.3295 52.9333 71.126C53.1345 70.9225 53.2476 70.6465 53.2476 70.3587V64.3791C51.8489 63.8026 49.7208 63.3237 46.5427 63.3237Z" fill="#CBD5E0"/>
<path d="M49.3464 65.6621H43.7412C43.4376 65.6621 43.1914 65.9111 43.1914 66.2183V67.2954C43.1914 67.6025 43.4376 67.8515 43.7412 67.8515H49.3464C49.6501 67.8515 49.8962 67.6025 49.8962 67.2954V66.2183C49.8962 65.9111 49.6501 65.6621 49.3464 65.6621Z" fill="white"/>
<rect x="6.03613" y="101.287" width="9.65766" height="2.40462" fill="#718096"/>
<rect x="51.9102" y="101.287" width="9.65766" height="2.40462" fill="#718096"/>
</svg>
