<svg width="67" height="105" viewBox="0 0 67 105" fill="none" xmlns="http://www.w3.org/2000/svg">
<rect x="0.5" y="0.5" width="66" height="101.572" rx="1.5" fill="#EDF2F7" stroke="#718096"/>
<rect x="0.5" y="0.5" width="66" height="101.572" rx="1.5" fill="#EDF2F7" stroke="#718096"/>
<rect x="1" y="1" width="65" height="100.572" rx="3" fill="white" stroke="#718096" stroke-width="2"/>
<mask id="path-4-inside-1_2185_132741" fill="white">
<rect x="4.8291" y="4.85547" width="57.3423" height="37.6301" rx="2"/>
</mask>
<rect x="4.8291" y="4.85547" width="57.3423" height="37.6301" rx="2" fill="#CBD5E0" stroke="#718096" stroke-width="6" mask="url(#path-4-inside-1_2185_132741)"/>
<path d="M12.208 51.7795V52.3531C13.1994 51.8857 14.8295 51.4823 17.5039 51.4823C20.0142 51.4823 21.6909 51.8465 22.7998 52.285V51.7114C21.6909 51.2729 20.0142 50.9097 17.5039 50.9097C14.8295 50.9097 13.1994 51.3121 12.208 51.7795Z" fill="white"/>
<path d="M21.9525 47.3408H13.0554C12.8306 47.3408 12.6151 47.4278 12.4562 47.5826C12.2973 47.7374 12.208 47.9473 12.208 48.1663V51.3308C13.2788 50.8675 14.9375 50.4971 17.5039 50.4971C19.9485 50.4971 21.6347 50.8314 22.7998 51.2606V48.1652C22.7996 47.9465 22.7102 47.7368 22.5513 47.5822C22.3924 47.4276 22.177 47.3408 21.9525 47.3408Z" fill="#718096"/>
<path d="M17.5039 51.4824C14.8295 51.4824 13.1994 51.8859 12.208 52.3533V56.8333C12.208 57.0522 12.2973 57.2622 12.4562 57.417C12.6151 57.5718 12.8306 57.6587 13.0554 57.6587H21.9525C22.1772 57.6587 22.3927 57.5718 22.5517 57.417C22.7106 57.2622 22.7998 57.0522 22.7998 56.8333V52.2852C21.6951 51.8466 20.0142 51.4824 17.5039 51.4824Z" fill="#CBD5E0"/>
<path d="M19.7191 53.2612H15.2917C15.0518 53.2612 14.8574 53.4506 14.8574 53.6843V54.5035C14.8574 54.7371 15.0518 54.9265 15.2917 54.9265H19.7191C19.9589 54.9265 20.1533 54.7371 20.1533 54.5035V53.6843C20.1533 53.4506 19.9589 53.2612 19.7191 53.2612Z" fill="white"/>
<path d="M12.208 68.1672V68.7408C13.1994 68.2734 14.8295 67.87 17.5039 67.87C20.0142 67.87 21.6909 68.2342 22.7998 68.6727V68.0991C21.6909 67.6606 20.0142 67.2974 17.5039 67.2974C14.8295 67.2974 13.1994 67.6998 12.208 68.1672Z" fill="white"/>
<path d="M21.9525 63.7285H13.0554C12.8306 63.7285 12.6151 63.8155 12.4562 63.9703C12.2973 64.1251 12.208 64.335 12.208 64.5539V67.7185C13.2788 67.2552 14.9375 66.8848 17.5039 66.8848C19.9485 66.8848 21.6347 67.2191 22.7998 67.6483V64.5529C22.7996 64.3342 22.7102 64.1245 22.5513 63.9699C22.3924 63.8153 22.177 63.7285 21.9525 63.7285Z" fill="#718096"/>
<path d="M17.5039 67.8701C14.8295 67.8701 13.1994 68.2735 12.208 68.7409V73.221C12.208 73.4399 12.2973 73.6499 12.4562 73.8047C12.6151 73.9595 12.8306 74.0464 13.0554 74.0464H21.9525C22.1772 74.0464 22.3927 73.9595 22.5517 73.8047C22.7106 73.6499 22.7998 73.4399 22.7998 73.221V68.6729C21.6951 68.2343 20.0142 67.8701 17.5039 67.8701Z" fill="#CBD5E0"/>
<path d="M19.7191 69.6489H15.2917C15.0518 69.6489 14.8574 69.8383 14.8574 70.072V70.8912C14.8574 71.1248 15.0518 71.3142 15.2917 71.3142H19.7191C19.9589 71.3142 20.1533 71.1248 20.1533 70.8912V70.072C20.1533 69.8383 19.9589 69.6489 19.7191 69.6489Z" fill="white"/>
<path d="M12.208 84.5544V85.1281C13.1994 84.6606 14.8295 84.2572 17.5039 84.2572C20.0142 84.2572 21.6909 84.6214 22.7998 85.06V84.4863C21.6909 84.0478 20.0142 83.6846 17.5039 83.6846C14.8295 83.6846 13.1994 84.087 12.208 84.5544Z" fill="white"/>
<path d="M21.9525 80.1157H13.0554C12.8306 80.1157 12.6151 80.2027 12.4562 80.3575C12.2973 80.5123 12.208 80.7222 12.208 80.9412V84.1057C13.2788 83.6424 14.9375 83.272 17.5039 83.272C19.9485 83.272 21.6347 83.6063 22.7998 84.0355V80.9401C22.7996 80.7214 22.7102 80.5117 22.5513 80.3571C22.3924 80.2025 22.177 80.1157 21.9525 80.1157Z" fill="#718096"/>
<path d="M17.5039 84.2573C14.8295 84.2573 13.1994 84.6608 12.208 85.1282V89.6082C12.208 89.8271 12.2973 90.0371 12.4562 90.1919C12.6151 90.3467 12.8306 90.4336 13.0554 90.4336H21.9525C22.1772 90.4336 22.3927 90.3467 22.5517 90.1919C22.7106 90.0371 22.7998 89.8271 22.7998 89.6082V85.0601C21.6951 84.6215 20.0142 84.2573 17.5039 84.2573Z" fill="#CBD5E0"/>
<path d="M19.7191 86.0361H15.2917C15.0518 86.0361 14.8574 86.2255 14.8574 86.4592V87.2784C14.8574 87.512 15.0518 87.7014 15.2917 87.7014H19.7191C19.9589 87.7014 20.1533 87.512 20.1533 87.2784V86.4592C20.1533 86.2255 19.9589 86.0361 19.7191 86.0361Z" fill="white"/>
<rect x="6.03613" y="102.572" width="9.65766" height="2.42774" fill="#718096"/>
<rect x="51.9102" y="102.572" width="9.65766" height="2.42774" fill="#718096"/>
</svg>
