<svg width="16" height="16" viewBox="0 0 16 16" fill="none" xmlns="http://www.w3.org/2000/svg">
<path d="M6.00033 7.16667C4.98699 7.16667 4.16699 6.34667 4.16699 5.33333C4.16699 4.32 4.98699 3.5 6.00033 3.5C7.01366 3.5 7.83366 4.32 7.83366 5.33333C7.83366 6.34667 7.01366 7.16667 6.00033 7.16667ZM6.00033 4.5C5.54033 4.5 5.16699 4.87333 5.16699 5.33333C5.16699 5.79333 5.54033 6.16667 6.00033 6.16667C6.46033 6.16667 6.83366 5.79333 6.83366 5.33333C6.83366 4.87333 6.46033 4.5 6.00033 4.5Z" fill="#000"/>
<path d="M9.99967 15.1654H5.99967C2.37967 15.1654 0.833008 13.6187 0.833008 9.9987V5.9987C0.833008 2.3787 2.37967 0.832031 5.99967 0.832031H8.66634C8.93967 0.832031 9.16634 1.0587 9.16634 1.33203C9.16634 1.60536 8.93967 1.83203 8.66634 1.83203H5.99967C2.92634 1.83203 1.83301 2.92536 1.83301 5.9987V9.9987C1.83301 13.072 2.92634 14.1654 5.99967 14.1654H9.99967C13.073 14.1654 14.1663 13.072 14.1663 9.9987V6.66536C14.1663 6.39203 14.393 6.16536 14.6663 6.16536C14.9397 6.16536 15.1663 6.39203 15.1663 6.66536V9.9987C15.1663 13.6187 13.6197 15.1654 9.99967 15.1654Z" fill="#000"/>
<path d="M14.1667 3.83203H10.5C10.2267 3.83203 10 3.60536 10 3.33203C10 3.0587 10.2267 2.83203 10.5 2.83203H14.1667C14.44 2.83203 14.6667 3.0587 14.6667 3.33203C14.6667 3.60536 14.44 3.83203 14.1667 3.83203Z" fill="#000"/>
<path d="M12.333 5.66667C12.0597 5.66667 11.833 5.44 11.833 5.16667V1.5C11.833 1.22667 12.0597 1 12.333 1C12.6063 1 12.833 1.22667 12.833 1.5V5.16667C12.833 5.44 12.6063 5.66667 12.333 5.66667Z" fill="#000"/>
<path d="M1.77954 13.135C1.61954 13.135 1.45954 13.055 1.36621 12.915C1.21288 12.6883 1.27288 12.375 1.49954 12.2217L4.78621 10.015C5.50621 9.535 6.49954 9.58833 7.15288 10.1417L7.37288 10.335C7.70621 10.6217 8.27288 10.6217 8.59954 10.335L11.3729 7.955C12.0862 7.34833 13.1929 7.34833 13.9062 7.955L14.9929 8.88833C15.1995 9.06833 15.2262 9.38167 15.0462 9.595C14.8662 9.80167 14.5529 9.82833 14.3395 9.64833L13.2529 8.715C12.9195 8.42833 12.3529 8.42833 12.0262 8.715L9.25288 11.095C8.54621 11.7017 7.43288 11.7017 6.71954 11.095L6.49954 10.9017C6.19288 10.6417 5.68621 10.615 5.34621 10.8483L2.06621 13.055C1.97288 13.1083 1.87288 13.135 1.77954 13.135Z" fill="#000"/>
</svg>
