<svg width="24" height="24" viewBox="0 0 24 24" fill="none" xmlns="http://www.w3.org/2000/svg">
<path d="M17.5002 22.75H3.50024C3.09024 22.75 2.75024 22.41 2.75024 22V5C2.75024 2.76 4.26024 1.25 6.50024 1.25H14.5002C16.7402 1.25 18.2502 2.76 18.2502 5V22C18.2502 22.41 17.9102 22.75 17.5002 22.75ZM4.25024 21.25H16.7502V5C16.7502 3.59 15.9102 2.75 14.5002 2.75H6.50024C5.09024 2.75 4.25024 3.59 4.25024 5V21.25Z" fill="black"/>
<path d="M19.0002 22.75H2.00024C1.59024 22.75 1.25024 22.41 1.25024 22C1.25024 21.59 1.59024 21.25 2.00024 21.25H19.0002C19.4102 21.25 19.7502 21.59 19.7502 22C19.7502 22.41 19.4102 22.75 19.0002 22.75Z" fill="black"/>
<path d="M12.6105 10.7502H8.38048C6.75048 10.7502 5.74048 9.74023 5.74048 8.11023V6.88023C5.74048 5.25023 6.75048 4.24023 8.38048 4.24023H12.6105C14.2405 4.24023 15.2505 5.25023 15.2505 6.88023V8.11023C15.2505 9.74023 14.2405 10.7502 12.6105 10.7502ZM8.39048 5.75023C7.58048 5.75023 7.25048 6.08023 7.25048 6.89023V8.12022C7.25048 8.93022 7.58048 9.26022 8.39048 9.26022H12.6205C13.4305 9.26022 13.7605 8.93022 13.7605 8.12022V6.89023C13.7605 6.08023 13.4305 5.75023 12.6205 5.75023H8.39048Z" fill="black"/>
<path d="M9.50024 13.75H6.50024C6.09024 13.75 5.75024 13.41 5.75024 13C5.75024 12.59 6.09024 12.25 6.50024 12.25H9.50024C9.91024 12.25 10.2502 12.59 10.2502 13C10.2502 13.41 9.91024 13.75 9.50024 13.75Z" fill="black"/>
<path d="M17.5002 16.7602C17.0902 16.7602 16.7502 16.4302 16.7502 16.0102C16.7502 15.6002 17.0802 15.2602 17.5002 15.2602L21.2502 15.2502V10.4602L19.6602 9.67017C19.2902 9.48017 19.1402 9.03017 19.3202 8.66017C19.5102 8.29017 19.9602 8.14018 20.3302 8.32018L22.3302 9.32018C22.5802 9.45018 22.7402 9.71017 22.7402 9.99017V15.9902C22.7402 16.4002 22.4102 16.7402 21.9902 16.7402L17.5002 16.7602Z" fill="black"/>
</svg>
