<svg width="24" height="25" viewBox="0 0 24 25" fill="none" xmlns="http://www.w3.org/2000/svg">
<path d="M15.84 23.25H8.15999C5.47999 23.25 4.25999 22.25 3.71999 21.42C2.92999 20.2 2.95999 18.53 3.80999 16.59L7.63999 7.89C7.10999 7.75 6.61999 7.47 6.22999 7.08C5.65999 6.5 5.31999 5.7 5.31999 4.87C5.31999 3.15 6.71999 1.75 8.43999 1.75H15.55C16.38 1.75 17.17 2.08 17.76 2.67C18.54 3.45 18.85 4.56 18.59 5.63C18.33 6.7 17.45 7.55 16.37 7.86L20.19 16.6C21.03 18.53 21.06 20.2 20.26 21.42C19.72 22.25 18.5 23.25 15.84 23.25ZM8.43999 3.25C7.54999 3.25 6.81999 3.98 6.81999 4.87C6.81999 5.3 6.99999 5.72 7.28999 6.02C7.58999 6.32 8.00999 6.49 8.43999 6.49H8.73999C8.98999 6.49 9.22999 6.62 9.36999 6.83C9.50999 7.04 9.52999 7.31 9.42999 7.54L5.17999 17.19C4.54999 18.63 4.46999 19.84 4.96999 20.6C5.58999 21.55 7.03999 21.75 8.14999 21.75H15.83C16.93 21.75 18.37 21.55 19 20.6C19.5 19.83 19.43 18.63 18.81 17.2L14.6 7.54C14.5 7.31 14.52 7.04 14.66 6.83C14.8 6.62 15.03 6.49 15.29 6.49H15.45C16.25 6.49 16.97 5.98 17.14 5.27C17.28 4.7 17.12 4.14 16.71 3.73C16.4 3.42 15.99 3.25 15.56 3.25H8.43999Z" fill="#000"/>
<path d="M13.8401 15.5386C13.1801 15.5386 12.4701 15.4486 11.7601 15.2086C8.92006 14.2586 5.99006 14.3586 5.96006 14.3586C5.56006 14.4186 5.20006 14.0486 5.18006 13.6386C5.16006 13.2286 5.49006 12.8786 5.90006 12.8586C6.03006 12.8486 9.14006 12.7486 12.2301 13.7786C14.8301 14.6486 17.3801 12.9986 17.4101 12.9786C17.7501 12.7486 18.2201 12.8486 18.4501 13.1886C18.6801 13.5286 18.5901 13.9986 18.2401 14.2286C18.1501 14.2986 16.2501 15.5386 13.8401 15.5386Z" fill="#000"/>
</svg>
