<svg width="28" height="24" viewBox="0 0 28 24" fill="none" xmlns="http://www.w3.org/2000/svg">
<path d="M20 16.25L12 8.25M20 8.25L12 16.25" stroke="white" stroke-width="2" stroke-linecap="round"/>
<path d="M7.22634 2.40596L7.9767 2.96007L7.22634 2.40596L1.68787 9.90596C1.24053 10.5117 1 11.2465 1 12C1 12.7535 1.24053 13.4883 1.68787 14.094L7.22634 21.594C7.54742 22.0289 7.96483 22.3831 8.44639 22.6277C8.92803 22.8723 9.45999 23 10 23H23.5385C24.4616 23 25.3437 22.6274 25.9916 21.9694C26.639 21.3118 27 20.4233 27 19.5V4.5C27 3.5767 26.639 2.68816 25.9916 2.03063C25.3437 1.37258 24.4616 1 23.5385 1H10C9.45999 1 8.92802 1.12773 8.44639 1.37231C7.96482 1.61685 7.54742 1.97115 7.22634 2.40596Z" stroke="white" stroke-width="2" stroke-linecap="round" stroke-linejoin="round"/>
</svg>
