<svg width="16" height="16" viewBox="0 0 16 16" fill="none" xmlns="http://www.w3.org/2000/svg">
<path d="M11.333 14.5H4.66634C1.72634 14.5 0.833008 13.6067 0.833008 10.6667V5.33333C0.833008 2.39333 1.72634 1.5 4.66634 1.5H11.333C14.273 1.5 15.1663 2.39333 15.1663 5.33333V10.6667C15.1663 13.6067 14.273 14.5 11.333 14.5ZM4.66634 2.5C2.27967 2.5 1.83301 2.95333 1.83301 5.33333V10.6667C1.83301 13.0467 2.27967 13.5 4.66634 13.5H11.333C13.7197 13.5 14.1663 13.0467 14.1663 10.6667V5.33333C14.1663 2.95333 13.7197 2.5 11.333 2.5H4.66634Z" fill="#000"/>
<path d="M12.6663 5.83203H9.33301C9.05967 5.83203 8.83301 5.60536 8.83301 5.33203C8.83301 5.0587 9.05967 4.83203 9.33301 4.83203H12.6663C12.9397 4.83203 13.1663 5.0587 13.1663 5.33203C13.1663 5.60536 12.9397 5.83203 12.6663 5.83203Z" fill="#000"/>
<path d="M12.6667 8.5H10C9.72667 8.5 9.5 8.27333 9.5 8C9.5 7.72667 9.72667 7.5 10 7.5H12.6667C12.94 7.5 13.1667 7.72667 13.1667 8C13.1667 8.27333 12.94 8.5 12.6667 8.5Z" fill="#000"/>
<path d="M12.6663 11.168H11.333C11.0597 11.168 10.833 10.9413 10.833 10.668C10.833 10.3946 11.0597 10.168 11.333 10.168H12.6663C12.9397 10.168 13.1663 10.3946 13.1663 10.668C13.1663 10.9413 12.9397 11.168 12.6663 11.168Z" fill="#000"/>
<path d="M5.66663 8.02661C4.72663 8.02661 3.95996 7.25995 3.95996 6.31995C3.95996 5.37995 4.72663 4.61328 5.66663 4.61328C6.60663 4.61328 7.37329 5.37995 7.37329 6.31995C7.37329 7.25995 6.60663 8.02661 5.66663 8.02661ZM5.66663 5.61328C5.27996 5.61328 4.95996 5.93328 4.95996 6.31995C4.95996 6.70661 5.27996 7.02661 5.66663 7.02661C6.05329 7.02661 6.37329 6.70661 6.37329 6.31995C6.37329 5.93328 6.05329 5.61328 5.66663 5.61328Z" fill="#000"/>
<path d="M7.99994 11.3852C7.7466 11.3852 7.5266 11.1919 7.49994 10.9319C7.4266 10.2119 6.8466 9.63188 6.11994 9.56521C5.81327 9.53854 5.5066 9.53854 5.19994 9.56521C4.47327 9.63188 3.89327 10.2052 3.81994 10.9319C3.79327 11.2052 3.5466 11.4119 3.27327 11.3785C2.99994 11.3519 2.79994 11.1052 2.8266 10.8319C2.9466 9.63188 3.89994 8.67854 5.1066 8.57187C5.47327 8.53854 5.8466 8.53854 6.21327 8.57187C7.41327 8.68521 8.37327 9.63854 8.49327 10.8319C8.51994 11.1052 8.31994 11.3519 8.0466 11.3785C8.03327 11.3852 8.01327 11.3852 7.99994 11.3852Z" fill="#000"/>
</svg>
