<svg width="16" height="16" viewBox="0 0 16 16" fill="none" xmlns="http://www.w3.org/2000/svg">
<path d="M3.33325 11.1667C3.05992 11.1667 2.83325 10.94 2.83325 10.6667V6C2.83325 5.72667 3.05992 5.5 3.33325 5.5C3.60659 5.5 3.83325 5.72667 3.83325 6V10.6667C3.83325 10.94 3.60659 11.1667 3.33325 11.1667Z" fill="#000"/>
<path d="M3.49992 6.16536C2.02659 6.16536 0.833252 4.97203 0.833252 3.4987C0.833252 2.02536 2.02659 0.832031 3.49992 0.832031C4.97325 0.832031 6.16658 2.02536 6.16658 3.4987C6.16658 4.97203 4.97325 6.16536 3.49992 6.16536ZM3.49992 1.83203C2.57992 1.83203 1.83325 2.5787 1.83325 3.4987C1.83325 4.4187 2.57992 5.16536 3.49992 5.16536C4.41992 5.16536 5.16659 4.4187 5.16659 3.4987C5.16659 2.5787 4.41992 1.83203 3.49992 1.83203Z" fill="#000"/>
<path d="M3.33325 15.168C1.95325 15.168 0.833252 14.048 0.833252 12.668C0.833252 11.288 1.95325 10.168 3.33325 10.168C4.71325 10.168 5.83325 11.288 5.83325 12.668C5.83325 14.048 4.71325 15.168 3.33325 15.168ZM3.33325 11.168C2.50659 11.168 1.83325 11.8413 1.83325 12.668C1.83325 13.4946 2.50659 14.168 3.33325 14.168C4.15992 14.168 4.83325 13.4946 4.83325 12.668C4.83325 11.8413 4.15992 11.168 3.33325 11.168Z" fill="#000"/>
<path d="M12.6667 15.168C11.2867 15.168 10.1667 14.048 10.1667 12.668C10.1667 11.288 11.2867 10.168 12.6667 10.168C14.0467 10.168 15.1667 11.288 15.1667 12.668C15.1667 14.048 14.0467 15.168 12.6667 15.168ZM12.6667 11.168C11.8401 11.168 11.1667 11.8413 11.1667 12.668C11.1667 13.4946 11.8401 14.168 12.6667 14.168C13.4934 14.168 14.1667 13.4946 14.1667 12.668C14.1667 11.8413 13.4934 11.168 12.6667 11.168Z" fill="#000"/>
<path d="M12.1133 11.1924C11.9067 11.1924 11.7133 11.0657 11.64 10.859C11.1533 9.45902 9.83332 8.51902 8.34666 8.51902C8.33999 8.51902 8.33999 8.51902 8.33332 8.51902L6.04666 8.52569C6.03999 8.52569 6.03999 8.52569 6.03332 8.52569C4.57332 8.52569 3.29999 7.53902 2.93332 6.12569C2.86666 5.85902 3.02666 5.58568 3.29332 5.51902C3.55999 5.45235 3.83332 5.61236 3.89999 5.87902C4.15332 6.85236 5.02666 7.53234 6.03332 7.53234H6.03999L8.32666 7.52569C8.33332 7.52569 8.33999 7.52569 8.34666 7.52569C10.2533 7.52569 11.9533 8.73235 12.58 10.539C12.6733 10.799 12.5333 11.0857 12.2733 11.1724C12.22 11.179 12.1667 11.1924 12.1133 11.1924Z" fill="#000"/>
</svg>
