<svg width="1122" height="2" viewBox="0 0 1122 2" fill="none" xmlns="http://www.w3.org/2000/svg">
<path fill-rule="evenodd" clip-rule="evenodd" d="M0 2L1031 1.99991L1031 -8.98731e-05L1.74846e-07 3.57628e-07L0 2ZM1037 4.34989e-06C1036.45 4.30161e-06 1036 0.44772 1036 1C1036 1.55229 1036.45 2 1037 2L1039.07 2C1039.63 2 1040.07 1.55229 1040.07 1C1040.07 0.44772 1039.63 4.34108e-06 1039.07 4.2928e-06L1037 4.34989e-06ZM1044.26 4.26926e-06C1043.71 4.4594e-06 1043.26 0.44772 1043.26 1C1043.26 1.55229 1043.71 2 1044.26 2L1048.41 2C1048.96 2 1049.41 1.55229 1049.41 1C1049.41 0.44772 1048.96 4.44177e-06 1048.41 4.39348e-06L1044.26 4.26926e-06ZM1053.59 4.36996e-06C1053.04 4.32167e-06 1052.59 0.44772 1052.59 1C1052.59 1.55229 1053.04 2 1053.59 2L1057.74 2C1058.29 2 1058.74 1.55229 1058.74 1C1058.74 0.44772 1058.29 4.30404e-06 1057.74 4.25576e-06L1053.59 4.36996e-06ZM1062.93 4.47064e-06C1062.37 4.42236e-06 1061.93 0.44772 1061.93 1C1061.93 1.55229 1062.37 2 1062.93 2L1067.07 2C1067.63 2 1068.07 1.55229 1068.07 1C1068.07 0.44772 1067.63 4.40473e-06 1067.07 4.35645e-06L1062.93 4.47064e-06ZM1072.26 4.33292e-06C1071.71 4.28464e-06 1071.26 0.44772 1071.26 1C1071.26 1.55229 1071.71 2 1072.26 2L1076.41 2C1076.96 2 1077.41 1.55229 1077.41 1C1077.41 0.44772 1076.96 4.267e-06 1076.41 4.45713e-06L1072.26 4.33292e-06ZM1081.59 4.4336e-06C1081.04 4.38532e-06 1080.59 0.44772 1080.59 1C1080.59 1.55229 1081.04 2 1081.59 2L1085.74 2C1086.29 2 1086.74 1.55229 1086.74 1C1086.74 0.44772 1086.29 4.36769e-06 1085.74 4.31941e-06L1081.59 4.4336e-06ZM1090.93 4.29587e-06C1090.37 4.48601e-06 1089.93 0.44772 1089.93 1C1089.93 1.55229 1090.37 2 1090.93 2L1095.07 2C1095.63 2 1096.07 1.55229 1096.07 1C1096.07 0.44772 1095.63 4.46838e-06 1095.07 4.4201e-06L1090.93 4.29587e-06ZM1100.26 4.39657e-06C1099.71 4.34828e-06 1099.26 0.44772 1099.26 1C1099.26 1.55229 1099.71 2 1100.26 2L1104.41 2C1104.96 2 1105.41 1.55229 1105.41 1C1105.41 0.44772 1104.96 4.33066e-06 1104.41 4.28237e-06L1100.26 4.39657e-06ZM1109.59 4.25883e-06C1109.04 4.44897e-06 1108.59 0.44772 1108.59 1C1108.59 1.55229 1109.04 2 1109.59 2L1113.74 2C1114.29 2 1114.74 1.55229 1114.74 1C1114.74 0.44772 1114.29 4.43134e-06 1113.74 4.38306e-06L1109.59 4.25883e-06ZM1118.93 4.35953e-06C1118.37 4.31125e-06 1117.93 0.44772 1117.93 1C1117.93 1.55229 1118.37 2 1118.93 2L1121 2C1121.55 2 1122 1.55229 1122 1C1122 0.44772 1121.55 4.35071e-06 1121 4.30243e-06L1118.93 4.35953e-06Z" fill="#2999EA"/>
</svg>
