<svg width="16" height="16" viewBox="0 0 16 16" fill="none" xmlns="http://www.w3.org/2000/svg">
    <path d="M8.00023 9.23262C7.91357 9.23262 7.8269 9.21262 7.75357 9.16595C7.51357 9.02595 7.43357 8.71928 7.5669 8.48595L8.13357 7.49928H7.57357C7.24023 7.49928 6.9669 7.35262 6.82023 7.10595C6.67357 6.85262 6.6869 6.54595 6.85357 6.25262L7.5669 5.01262C7.7069 4.77262 8.01357 4.69262 8.2469 4.82595C8.4869 4.96595 8.5669 5.27262 8.43357 5.50595L7.8669 6.49928H8.4269C8.76023 6.49928 9.03357 6.64595 9.18023 6.89262C9.3269 7.14595 9.31357 7.45262 9.1469 7.74595L8.43357 8.98595C8.34023 9.14595 8.17357 9.23262 8.00023 9.23262Z" fill="white" />
    <path d="M9.84707 13.1656H6.17374C5.8804 13.1656 5.50707 13.1322 5.2604 12.8789C5.0204 12.6322 5.02707 12.3256 5.03374 12.1189V11.5256C3.35374 10.4056 2.24707 8.45889 2.24707 6.60556C2.24707 4.85222 3.03374 3.21223 4.4004 2.11223C5.76707 1.01223 7.5604 0.598892 9.31374 0.985559C10.9804 1.35223 12.4204 2.46556 13.1671 3.96556C14.6137 6.87889 13.2204 10.0322 10.9937 11.5322V12.0322C11.0004 12.2256 11.0071 12.5789 10.7337 12.8589C10.5271 13.0589 10.2337 13.1656 9.84707 13.1656ZM6.02707 12.1589C6.0604 12.1589 6.10707 12.1656 6.16707 12.1656H9.84707C9.91374 12.1656 9.9604 12.1589 9.98707 12.1522C9.98707 12.1322 9.98707 12.1056 9.98707 12.0856V11.2456C9.98707 11.0722 10.0804 10.9056 10.2271 10.8189C12.2004 9.62556 13.5071 6.89889 12.2604 4.39889C11.6471 3.16556 10.4604 2.25223 9.08707 1.95223C7.63374 1.63223 6.14707 1.97223 5.01374 2.88556C3.8804 3.79889 3.23374 5.15222 3.23374 6.60556C3.23374 8.45889 4.51374 10.0589 5.7804 10.8256C5.93374 10.9189 6.0204 11.0789 6.0204 11.2522V12.1522C6.02707 12.1522 6.02707 12.1522 6.02707 12.1589Z" fill="white" />
    <path d="M10.3332 15.1676C10.2865 15.1676 10.2398 15.1609 10.1932 15.1476C8.75318 14.7343 7.23984 14.7343 5.79984 15.1476C5.53318 15.2209 5.25984 15.0676 5.17984 14.8009C5.09984 14.5343 5.25984 14.2609 5.52651 14.1809C7.13984 13.7209 8.85318 13.7209 10.4665 14.1809C10.7332 14.2543 10.8865 14.5343 10.8132 14.8009C10.7532 15.0276 10.5532 15.1676 10.3332 15.1676Z" fill="white" />
</svg>