<svg width="18" height="18" viewBox="0 0 18 18" fill="none" xmlns="http://www.w3.org/2000/svg">
<path d="M8.84328 8.91C8.43828 8.91 8.02578 8.835 7.70328 8.6925L3.27828 6.7275C2.15328 6.225 1.98828 5.55 1.98828 5.1825C1.98828 4.815 2.15328 4.14 3.27828 3.6375L7.70328 1.6725C8.35578 1.38 9.33828 1.38 9.99078 1.6725L14.4233 3.6375C15.5408 4.1325 15.7133 4.815 15.7133 5.1825C15.7133 5.55 15.5483 6.225 14.4233 6.7275L9.99078 8.6925C9.66078 8.8425 9.25578 8.91 8.84328 8.91ZM8.84328 2.58C8.58828 2.58 8.34078 2.6175 8.16078 2.7L3.73578 4.665C3.27828 4.875 3.11328 5.085 3.11328 5.1825C3.11328 5.28 3.27828 5.4975 3.72828 5.7L8.15328 7.665C8.51328 7.8225 9.16578 7.8225 9.52578 7.665L13.9583 5.7C14.4158 5.4975 14.5808 5.28 14.5808 5.1825C14.5808 5.085 14.4158 4.8675 13.9583 4.665L9.53328 2.7C9.35328 2.625 9.09828 2.58 8.84328 2.58Z" fill="#000"/>
<path d="M9 12.8175C8.715 12.8175 8.43 12.7575 8.16 12.6375L3.0675 10.3725C2.295 10.035 1.6875 9.0975 1.6875 8.25C1.6875 7.9425 1.9425 7.6875 2.25 7.6875C2.5575 7.6875 2.8125 7.9425 2.8125 8.25C2.8125 8.6625 3.15 9.18 3.525 9.3525L8.6175 11.6175C8.8575 11.7225 9.135 11.7225 9.3825 11.6175L14.475 9.3525C14.85 9.1875 15.1875 8.6625 15.1875 8.25C15.1875 7.9425 15.4425 7.6875 15.75 7.6875C16.0575 7.6875 16.3125 7.9425 16.3125 8.25C16.3125 9.0975 15.705 10.035 14.9325 10.38L9.84 12.645C9.57 12.7575 9.285 12.8175 9 12.8175Z" fill="#000"/>
<path d="M9 16.5672C8.715 16.5672 8.43 16.5072 8.16 16.3872L3.0675 14.1222C2.2275 13.7472 1.6875 12.9147 1.6875 11.9922C1.6875 11.6847 1.9425 11.4297 2.25 11.4297C2.5575 11.4297 2.8125 11.6922 2.8125 11.9997C2.8125 12.4722 3.09 12.9072 3.525 13.1022L8.6175 15.3672C8.8575 15.4722 9.135 15.4722 9.3825 15.3672L14.475 13.1022C14.91 12.9072 15.1875 12.4797 15.1875 11.9997C15.1875 11.6922 15.4425 11.4372 15.75 11.4372C16.0575 11.4372 16.3125 11.6922 16.3125 11.9997C16.3125 12.9222 15.7725 13.7547 14.9325 14.1297L9.84 16.3947C9.57 16.5072 9.285 16.5672 9 16.5672Z" fill="#000"/>
</svg>
