<svg width="16" height="16" viewBox="0 0 16 16" fill="none" xmlns="http://www.w3.org/2000/svg">
  <path d="M8.00034 15.1667C4.61368 15.1667 1.66034 12.7601 0.980344 9.44673C0.927011 9.1734 1.10035 8.91339 1.36701 8.85339C1.64035 8.80006 1.90034 8.97338 1.96034 9.24005C2.54701 12.0934 5.08701 14.1667 8.00034 14.1667C10.907 14.1667 13.447 12.1067 14.0403 9.26672C14.0937 8.99339 14.3603 8.82006 14.6337 8.88006C14.907 8.9334 15.0803 9.20005 15.0203 9.47339C14.327 12.7667 11.3803 15.1667 8.00034 15.1667Z" fill="#000" />
  <path d="M14.5396 7.20813C14.3063 7.20813 14.0996 7.04147 14.053 6.80147C13.4863 3.92147 10.9396 1.82813 7.99964 1.82813C5.07964 1.82813 2.53965 3.90147 1.95965 6.7548C1.90631 7.02813 1.63965 7.19479 1.36631 7.14146C1.09298 7.08813 0.919645 6.82147 0.979645 6.54814C1.65965 3.2348 4.61298 0.828125 7.99964 0.828125C11.4196 0.828125 14.373 3.26147 15.033 6.60813C15.0863 6.88147 14.9063 7.14147 14.6396 7.1948C14.6063 7.20814 14.573 7.20813 14.5396 7.20813Z" fill="#000" />
  <path d="M8 9.5C7.17333 9.5 6.5 8.82667 6.5 8C6.5 7.17333 7.17333 6.5 8 6.5C8.82667 6.5 9.5 7.17333 9.5 8C9.5 8.82667 8.82667 9.5 8 9.5ZM8 7.5C7.72667 7.5 7.5 7.72667 7.5 8C7.5 8.27333 7.72667 8.5 8 8.5C8.27333 8.5 8.5 8.27333 8.5 8C8.5 7.72667 8.27333 7.5 8 7.5Z" fill="#000" />
</svg>
