<svg width="16" height="16" viewBox="0 0 16 16" fill="none" xmlns="http://www.w3.org/2000/svg">
  <path d="M12 7.16536C11.7267 7.16536 11.5 6.9387 11.5 6.66536V5.33203C11.5 3.23203 10.9067 1.83203 8 1.83203C5.09333 1.83203 4.5 3.23203 4.5 5.33203V6.66536C4.5 6.9387 4.27333 7.16536 4 7.16536C3.72667 7.16536 3.5 6.9387 3.5 6.66536V5.33203C3.5 3.3987 3.96667 0.832031 8 0.832031C12.0333 0.832031 12.5 3.3987 12.5 5.33203V6.66536C12.5 6.9387 12.2733 7.16536 12 7.16536Z" fill="#000" />
  <path d="M11.3333 15.168H4.66665C1.72665 15.168 0.833313 14.2746 0.833313 11.3346V10.0013C0.833313 7.0613 1.72665 6.16797 4.66665 6.16797H11.3333C14.2733 6.16797 15.1666 7.0613 15.1666 10.0013V11.3346C15.1666 14.2746 14.2733 15.168 11.3333 15.168ZM4.66665 7.16797C2.27998 7.16797 1.83331 7.6213 1.83331 10.0013V11.3346C1.83331 13.7146 2.27998 14.168 4.66665 14.168H11.3333C13.72 14.168 14.1666 13.7146 14.1666 11.3346V10.0013C14.1666 7.6213 13.72 7.16797 11.3333 7.16797H4.66665Z" fill="#000" />
  <path d="M5.33335 11.3326C5.24669 11.3326 5.16002 11.3126 5.08002 11.2793C4.99335 11.2459 4.92669 11.1993 4.86003 11.1393C4.74003 11.0126 4.66669 10.8459 4.66669 10.6659C4.66669 10.5793 4.68668 10.4926 4.72001 10.4126C4.75334 10.3259 4.80003 10.2593 4.86003 10.1926C4.92669 10.1326 4.99335 10.0859 5.08002 10.0526C5.32002 9.94592 5.62001 10.0059 5.80668 10.1926C5.86668 10.2593 5.91336 10.3326 5.9467 10.4126C5.98003 10.4926 6.00002 10.5793 6.00002 10.6659C6.00002 10.8393 5.92668 11.0126 5.80668 11.1393C5.68001 11.2593 5.50669 11.3326 5.33335 11.3326Z" fill="#000" />
  <path d="M7.99998 11.3339C7.82665 11.3339 7.65332 11.2606 7.52665 11.1406C7.40665 11.0139 7.33331 10.8473 7.33331 10.6673C7.33331 10.5806 7.34664 10.4939 7.38664 10.4139C7.41997 10.3339 7.46665 10.2606 7.52665 10.1939C7.67999 10.0406 7.91331 9.96725 8.12665 10.0139C8.17331 10.0206 8.21332 10.0339 8.25332 10.0539C8.29332 10.0673 8.33331 10.0873 8.37331 10.1139C8.40664 10.1339 8.43997 10.1673 8.47331 10.1939C8.53331 10.2606 8.57999 10.3339 8.61332 10.4139C8.64666 10.4939 8.66665 10.5806 8.66665 10.6673C8.66665 10.8473 8.59331 11.0139 8.47331 11.1406C8.43997 11.1673 8.40664 11.1939 8.37331 11.2206C8.33331 11.2473 8.29332 11.2673 8.25332 11.2806C8.21332 11.3006 8.17331 11.3139 8.12665 11.3206C8.08665 11.3273 8.03998 11.3339 7.99998 11.3339Z" fill="#000" />
  <path d="M10.6667 11.3339C10.4867 11.3339 10.32 11.2606 10.1933 11.1406C10.1333 11.0739 10.0867 11.0006 10.0533 10.9206C10.02 10.8406 10 10.7539 10 10.6673C10 10.4939 10.0733 10.3206 10.1933 10.1939C10.2267 10.1673 10.26 10.1406 10.2933 10.1139C10.3333 10.0873 10.3733 10.0673 10.4133 10.0539C10.4533 10.0339 10.4933 10.0206 10.5333 10.0139C10.7533 9.96725 10.98 10.0406 11.14 10.1939C11.26 10.3206 11.3333 10.4873 11.3333 10.6673C11.3333 10.7539 11.3133 10.8406 11.28 10.9206C11.2467 11.0073 11.2 11.0739 11.14 11.1406C11.0133 11.2606 10.84 11.3339 10.6667 11.3339Z" fill="#000" />
</svg>
