<svg width="18" height="18" viewBox="0 0 18 18" fill="none" xmlns="http://www.w3.org/2000/svg">
<path d="M9 17.0625C4.5525 17.0625 0.9375 13.4475 0.9375 9C0.9375 4.5525 4.5525 0.9375 9 0.9375C13.4475 0.9375 17.0625 4.5525 17.0625 9C17.0625 13.4475 13.4475 17.0625 9 17.0625ZM9 2.0625C5.175 2.0625 2.0625 5.175 2.0625 9C2.0625 12.825 5.175 15.9375 9 15.9375C12.825 15.9375 15.9375 12.825 15.9375 9C15.9375 5.175 12.825 2.0625 9 2.0625Z" fill="#000"/>
<path d="M9 13.3125C8.6925 13.3125 8.4375 13.0575 8.4375 12.75V5.25C8.4375 4.9425 8.6925 4.6875 9 4.6875C11.3775 4.6875 13.3125 6.6225 13.3125 9C13.3125 11.3775 11.3775 13.3125 9 13.3125ZM9.5625 5.86501V12.1425C11.055 11.88 12.1875 10.5675 12.1875 9.00751C12.1875 7.44751 11.055 6.12751 9.5625 5.86501Z" fill="#000"/>
<path d="M9 13.3125C6.6225 13.3125 4.6875 11.3775 4.6875 9C4.6875 6.6225 6.6225 4.6875 9 4.6875C9.3075 4.6875 9.5625 4.9425 9.5625 5.25V12.75C9.5625 13.0575 9.3075 13.3125 9 13.3125ZM8.4375 5.86501C6.945 6.12751 5.8125 7.44 5.8125 9C5.8125 10.56 6.945 11.8725 8.4375 12.135V5.86501Z" fill="#000"/>
<path d="M9 17.0625C8.6925 17.0625 8.4375 16.8075 8.4375 16.5V12.75C8.4375 12.4425 8.6925 12.1875 9 12.1875C9.3075 12.1875 9.5625 12.4425 9.5625 12.75V16.5C9.5625 16.8075 9.3075 17.0625 9 17.0625Z" fill="#000"/>
<path d="M9 5.8125C8.6925 5.8125 8.4375 5.5575 8.4375 5.25V1.5C8.4375 1.1925 8.6925 0.9375 9 0.9375C9.3075 0.9375 9.5625 1.1925 9.5625 1.5V5.25C9.5625 5.5575 9.3075 5.8125 9 5.8125Z" fill="#000"/>
</svg>
