<svg width="8" height="12" viewBox="0 0 8 12" fill="none" xmlns="http://www.w3.org/2000/svg">
<path d="M3.88001 11.9901C3.69001 11.9901 3.50001 11.9201 3.35001 11.7701L0.79001 9.21012C0.50001 8.92012 0.50001 8.44012 0.79001 8.15012C1.08001 7.86012 1.56001 7.86012 1.85001 8.15012L3.88001 10.1801L5.91001 8.15012C6.20001 7.86012 6.68001 7.86012 6.97001 8.15012C7.26001 8.44012 7.26001 8.92012 6.97001 9.21012L4.41001 11.7701C4.26001 11.9201 4.07001 11.9901 3.88001 11.9901Z" fill="#000"/>
<path d="M3.88 11.92C3.47 11.92 3.13 11.58 3.13 11.17V1C3.13 0.59 3.47 0.25 3.88 0.25C4.29 0.25 4.63 0.59 4.63 1V11.17C4.63 11.58 4.29 11.92 3.88 11.92Z" fill="#000"/>
</svg>
