<svg width="32" height="32" viewBox="0 0 32 32" fill="none" xmlns="http://www.w3.org/2000/svg">
<path d="M12.3334 6.66667C12.3334 4.64 13.9734 3 16.0001 3C18.0267 3 19.6667 4.64 19.6667 6.66667C19.6667 8.69333 18.0267 10.3333 16.0001 10.3333C13.9734 10.3333 12.3334 8.69333 12.3334 6.66667ZM17.6667 6.66667C17.6667 5.74667 16.9201 5 16.0001 5C15.0801 5 14.3334 5.74667 14.3334 6.66667C14.3334 7.58667 15.0801 8.33333 16.0001 8.33333C16.9201 8.33333 17.6667 7.58667 17.6667 6.66667Z" fill="#000"/>
<path d="M12.3334 25.3346C12.3334 23.308 13.9734 21.668 16.0001 21.668C18.0267 21.668 19.6667 23.308 19.6667 25.3346C19.6667 27.3613 18.0267 29.0013 16.0001 29.0013C13.9734 29.0013 12.3334 27.3613 12.3334 25.3346ZM17.6667 25.3346C17.6667 24.4146 16.9201 23.668 16.0001 23.668C15.0801 23.668 14.3334 24.4146 14.3334 25.3346C14.3334 26.2546 15.0801 27.0013 16.0001 27.0013C16.9201 27.0013 17.6667 26.2546 17.6667 25.3346Z" fill="#000"/>
<path d="M12.3334 15.9987C12.3334 13.972 13.9734 12.332 16.0001 12.332C18.0267 12.332 19.6667 13.972 19.6667 15.9987C19.6667 18.0254 18.0267 19.6654 16.0001 19.6654C13.9734 19.6654 12.3334 18.0254 12.3334 15.9987ZM17.6667 15.9987C17.6667 15.0787 16.9201 14.332 16.0001 14.332C15.0801 14.332 14.3334 15.0787 14.3334 15.9987C14.3334 16.9187 15.0801 17.6654 16.0001 17.6654C16.9201 17.6654 17.6667 16.9187 17.6667 15.9987Z" fill="#000"/>
</svg>
