<svg width="30" height="31" viewBox="0 0 30 31" fill="none" xmlns="http://www.w3.org/2000/svg">
  <g filter="url(#filter0_d_2104_131902)">
    <path d="M4.7475 21.4975C4.5575 21.4975 4.3675 21.4275 4.2175 21.2775C3.9275 20.9875 3.9275 20.5075 4.2175 20.2175L24.2175 0.2175C24.5075 -0.0725 24.9875 -0.0725 25.2775 0.2175C25.5675 0.5075 25.5675 0.9875 25.2775 1.2775L5.2775 21.2775C5.1275 21.4275 4.9375 21.4975 4.7475 21.4975Z" fill="#000" />
  </g>
  <g filter="url(#filter1_d_2104_131902)">
    <path d="M14.9999 13.7397C14.2199 13.7397 13.4799 13.4398 12.9099 12.8798C12.1799 12.1498 11.8899 11.0998 12.1299 10.0698C12.3799 9.01976 13.2199 8.17975 14.2699 7.92975C15.2899 7.67975 16.3399 7.96978 17.0799 8.70978C17.8199 9.44978 18.0999 10.4898 17.8599 11.5198C17.6099 12.5698 16.7699 13.4097 15.7199 13.6597C15.4799 13.7097 15.2399 13.7397 14.9999 13.7397ZM14.9999 9.33978C14.8799 9.33978 14.7499 9.35977 14.6299 9.38977C14.1299 9.50977 13.72 9.91974 13.6 10.4197C13.47 10.9397 13.6099 11.4498 13.9799 11.8098C14.3499 12.1798 14.8499 12.3098 15.3799 12.1898C15.8799 12.0698 16.2899 11.6597 16.4099 11.1597C16.5399 10.6397 16.3999 10.1298 16.0299 9.76978C15.7499 9.48978 15.3899 9.33978 14.9999 9.33978Z" fill="#000" />
    <path d="M9.01996 17.97C8.83996 17.97 8.64995 17.9 8.50995 17.77C6.56995 15.97 5.45996 13.43 5.45996 10.79C5.45996 5.52998 9.73995 1.25 15 1.25C20.26 1.25 24.5399 5.52998 24.5399 10.79C24.5399 13.45 23.47 15.91 21.53 17.74C21.23 18.02 20.75 18.01 20.47 17.71C20.19 17.41 20.2 16.93 20.5 16.65C22.14 15.11 23.0399 13.04 23.0399 10.8C23.0399 6.36999 19.43 2.76001 15 2.76001C10.57 2.76001 6.95996 6.36999 6.95996 10.8C6.95996 13.06 7.86995 15.14 9.52995 16.68C9.82995 16.96 9.84996 17.44 9.56996 17.74C9.41996 17.89 9.21996 17.97 9.01996 17.97Z" fill="#000" />
    <path d="M19 15.3005C18.82 15.3005 18.63 15.2305 18.49 15.1005C18.19 14.8205 18.17 14.3405 18.46 14.0405C19.29 13.1605 19.75 12.0005 19.75 10.8005C19.75 8.18054 17.62 6.06055 15.01 6.06055C12.4 6.06055 10.27 8.19054 10.27 10.8005C10.27 12.0105 10.73 13.1605 11.56 14.0405C11.84 14.3405 11.83 14.8205 11.53 15.1005C11.23 15.3805 10.75 15.3706 10.47 15.0706C9.38002 13.9106 8.77002 12.3905 8.77002 10.8005C8.77002 7.36054 11.57 4.56055 15.01 4.56055C18.45 4.56055 21.25 7.36054 21.25 10.8005C21.25 12.3905 20.65 13.9106 19.55 15.0706C19.4 15.2206 19.2 15.3005 19 15.3005Z" fill="#000" />
    <path d="M16.4402 22.7496H13.5702C12.4302 22.7496 11.4202 22.1097 10.9302 21.0897C10.4402 20.0697 10.5702 18.8796 11.2802 17.9896L12.7202 16.1996C13.2802 15.4996 14.1102 15.0996 15.0102 15.0996C15.9102 15.0996 16.7402 15.4996 17.3002 16.1996L18.7402 17.9896C19.4502 18.8796 19.5902 20.0697 19.0902 21.0897C18.5802 22.1097 17.5702 22.7496 16.4402 22.7496ZM13.8802 17.1296L12.4402 18.9196C12.0902 19.3596 12.0202 19.9296 12.2702 20.4296C12.5102 20.9396 13.0002 21.2396 13.5602 21.2396H16.4302C16.9902 21.2396 17.4802 20.9396 17.7202 20.4296C17.9602 19.9196 17.9002 19.3596 17.5502 18.9196L16.1102 17.1296C15.5702 16.4496 14.4302 16.4496 13.8802 17.1296Z" fill="#000" />
  </g>
  <defs>
    <filter id="filter0_d_2104_131902" x="0" y="0" width="29.4951" height="29.4971" filterUnits="userSpaceOnUse" color-interpolation-filters="sRGB">
      <feFlood flood-opacity="0" result="BackgroundImageFix" />
      <feColorMatrix in="SourceAlpha" type="matrix" values="0 0 0 0 0 0 0 0 0 0 0 0 0 0 0 0 0 0 127 0" result="hardAlpha" />
      <feOffset dy="4" />
      <feGaussianBlur stdDeviation="2" />
      <feComposite in2="hardAlpha" operator="out" />
      <feColorMatrix type="matrix" values="0 0 0 0 0 0 0 0 0 0 0 0 0 0 0 0 0 0 0.25 0" />
      <feBlend mode="normal" in2="BackgroundImageFix" result="effect1_dropShadow_2104_131902" />
      <feBlend mode="normal" in="SourceGraphic" in2="effect1_dropShadow_2104_131902" result="shape" />
    </filter>
    <filter id="filter1_d_2104_131902" x="-1" y="0" width="32" height="32" filterUnits="userSpaceOnUse" color-interpolation-filters="sRGB">
      <feFlood flood-opacity="0" result="BackgroundImageFix" />
      <feColorMatrix in="SourceAlpha" type="matrix" values="0 0 0 0 0 0 0 0 0 0 0 0 0 0 0 0 0 0 127 0" result="hardAlpha" />
      <feOffset dy="4" />
      <feGaussianBlur stdDeviation="2" />
      <feComposite in2="hardAlpha" operator="out" />
      <feColorMatrix type="matrix" values="0 0 0 0 0 0 0 0 0 0 0 0 0 0 0 0 0 0 0.25 0" />
      <feBlend mode="normal" in2="BackgroundImageFix" result="effect1_dropShadow_2104_131902" />
      <feBlend mode="normal" in="SourceGraphic" in2="effect1_dropShadow_2104_131902" result="shape" />
    </filter>
  </defs>
</svg>
