<svg width="24" height="24" viewBox="0 0 24 24" fill="none" xmlns="http://www.w3.org/2000/svg">
<path d="M19.3198 22.7498H4.68977C2.79977 22.7498 1.25977 21.2098 1.25977 19.3198V16.6898C1.25977 14.7998 2.79977 13.2598 4.68977 13.2598H19.3198C21.2098 13.2598 22.7498 14.7998 22.7498 16.6898V19.3198C22.7498 21.2098 21.2098 22.7498 19.3198 22.7498ZM4.67976 14.7498C3.60976 14.7498 2.74977 15.6198 2.74977 16.6798V19.3098C2.74977 20.3798 3.61976 21.2398 4.67976 21.2398H19.3098C20.3798 21.2398 21.2398 20.3698 21.2398 19.3098V16.6798C21.2398 15.6098 20.3698 14.7498 19.3098 14.7498H4.67976Z" fill="#000"/>
<path d="M6 19.75C5.59 19.75 5.25 19.41 5.25 19V17C5.25 16.59 5.59 16.25 6 16.25C6.41 16.25 6.75 16.59 6.75 17V19C6.75 19.41 6.41 19.75 6 19.75Z" fill="#000"/>
<path d="M10 19.75C9.59 19.75 9.25 19.41 9.25 19V17C9.25 16.59 9.59 16.25 10 16.25C10.41 16.25 10.75 16.59 10.75 17V19C10.75 19.41 10.41 19.75 10 19.75Z" fill="#000"/>
<path d="M18 18.75H14C13.59 18.75 13.25 18.41 13.25 18C13.25 17.59 13.59 17.25 14 17.25H18C18.41 17.25 18.75 17.59 18.75 18C18.75 18.41 18.41 18.75 18 18.75Z" fill="#000"/>
<path d="M12 11.375C9.035 11.375 6.625 8.965 6.625 6C6.625 3.035 9.035 0.625 12 0.625C14.965 0.625 17.375 3.035 17.375 6C17.375 8.965 14.965 11.375 12 11.375ZM12 1.375C9.45 1.375 7.375 3.45 7.375 6C7.375 8.55 9.45 10.625 12 10.625C14.55 10.625 16.625 8.55 16.625 6C16.625 3.45 14.55 1.375 12 1.375Z" fill="#000"/>
<path d="M13.8548 7.96488C13.7898 7.96488 13.7248 7.94988 13.6648 7.90988L12.1148 6.98488C11.7298 6.75488 11.4448 6.24988 11.4448 5.80488V3.75488C11.4448 3.54988 11.6148 3.37988 11.8198 3.37988C12.0248 3.37988 12.1948 3.54988 12.1948 3.75488V5.80488C12.1948 5.98488 12.3448 6.24988 12.4998 6.33988L14.0498 7.26488C14.2298 7.36988 14.2848 7.59988 14.1798 7.77988C14.1048 7.89988 13.9798 7.96488 13.8548 7.96488Z" fill="#000"/>
</svg>
