<svg width="18" height="18" viewBox="0 0 18 18" fill="none" xmlns="http://www.w3.org/2000/svg">
<circle cx="9" cy="9" r="8" fill="url(#paint0_linear_563_30797)" stroke="url(#paint1_linear_563_30797)"/>
<circle cx="9.00002" cy="9.00039" r="5.6" fill="white"/>
<path d="M7.65065 6.02348C7.73592 5.98467 7.83285 5.98142 7.92047 6.01443C8.00809 6.04745 8.07933 6.11408 8.11879 6.19989C8.15824 6.2857 8.16273 6.3838 8.13128 6.47294C8.09983 6.56207 8.03497 6.63508 7.95074 6.67616C7.43656 6.91773 7.01927 7.32984 6.76795 7.84427C6.51664 8.3587 6.44636 8.94461 6.56876 9.50499C6.69115 10.0654 6.99889 10.5666 7.44101 10.9258C7.88314 11.285 8.43315 11.4805 8.99999 11.48C9.5661 11.48 10.1153 11.2846 10.5569 10.926C10.9985 10.5673 11.3061 10.067 11.429 9.50744C11.5518 8.94792 11.4826 8.3627 11.2326 7.84841C10.9827 7.33412 10.567 6.9215 10.0542 6.67868C9.97046 6.63718 9.90615 6.56404 9.87515 6.475C9.84415 6.38596 9.84894 6.28815 9.88848 6.20265C9.92802 6.11715 9.99915 6.0508 10.0865 6.01789C10.1739 5.98499 10.2706 5.98816 10.3557 6.02672C10.9069 6.28757 11.3733 6.7022 11.6999 7.22195C12.0266 7.7417 12.2001 8.34501 12.2 8.96108C12.2 10.7499 10.7671 12.2 8.99999 12.2C7.23288 12.2 5.79999 10.7499 5.79999 8.96108C5.79987 8.34376 5.974 7.73926 6.30189 7.21881C6.62977 6.69835 7.09774 6.28362 7.65065 6.02348ZM8.99999 5C9.08707 5.00001 9.17113 5.03238 9.23621 5.09098C9.30129 5.14957 9.34286 5.23031 9.35305 5.31788L9.35554 5.36V7.88C9.35544 7.97176 9.32074 8.06001 9.25853 8.12673C9.19632 8.19345 9.11129 8.2336 9.02082 8.23898C8.93036 8.24436 8.84127 8.21456 8.77178 8.15566C8.70229 8.09677 8.65762 8.01323 8.64692 7.92212L8.64443 7.88V5.36C8.64443 5.26452 8.68189 5.17295 8.74857 5.10544C8.81525 5.03793 8.90569 5 8.99999 5Z" fill="#425466"/>
<defs>
<linearGradient id="paint0_linear_563_30797" x1="7" y1="0.6" x2="9" y2="17" gradientUnits="userSpaceOnUse">
<stop stop-color="#CBD5E0"/>
<stop offset="0.484375" stop-color="#C6D0DE"/>
<stop offset="1" stop-color="#CBD5E0"/>
</linearGradient>
<linearGradient id="paint1_linear_563_30797" x1="9" y1="1" x2="9" y2="17" gradientUnits="userSpaceOnUse">
<stop stop-color="#F0FAFF"/>
<stop offset="0.510417" stop-color="#EFFAFF" stop-opacity="0.807292"/>
<stop offset="1" stop-color="#DAEDF7" stop-opacity="0"/>
</linearGradient>
</defs>
</svg>
