<svg width="16" height="16" viewBox="0 0 16 16" fill="none" xmlns="http://www.w3.org/2000/svg">
<path d="M8.00043 15.1648C7.55376 15.1648 7.10043 15.0514 6.70043 14.8181L2.74043 12.5314C1.94043 12.0648 1.44043 11.2048 1.44043 10.2781V5.71812C1.44043 4.79146 1.94043 3.93145 2.74043 3.46479L6.70043 1.17812C7.50043 0.711458 8.49376 0.711458 9.30043 1.17812L13.2604 3.46479C14.0604 3.93145 14.5604 4.79146 14.5604 5.71812V10.2781C14.5604 11.2048 14.0604 12.0648 13.2604 12.5314L9.30043 14.8181C8.90043 15.0514 8.4471 15.1648 8.00043 15.1648ZM8.00043 1.83145C7.7271 1.83145 7.4471 1.90478 7.20043 2.04478L3.24043 4.33145C2.7471 4.61811 2.44043 5.14479 2.44043 5.71812V10.2781C2.44043 10.8448 2.7471 11.3781 3.24043 11.6648L7.20043 13.9514C7.69376 14.2381 8.3071 14.2381 8.80043 13.9514L12.7604 11.6648C13.2538 11.3781 13.5604 10.8514 13.5604 10.2781V5.71812C13.5604 5.15146 13.2538 4.61811 12.7604 4.33145L8.80043 2.04478C8.55376 1.90478 8.27376 1.83145 8.00043 1.83145Z" fill="#000"/>
<path d="M7.99962 7.83321C6.86629 7.83321 5.94629 6.9132 5.94629 5.77987C5.94629 4.64653 6.86629 3.72656 7.99962 3.72656C9.13296 3.72656 10.053 4.64653 10.053 5.77987C10.053 6.9132 9.13296 7.83321 7.99962 7.83321ZM7.99962 4.72656C7.41962 4.72656 6.94629 5.19987 6.94629 5.77987C6.94629 6.35987 7.41962 6.83321 7.99962 6.83321C8.57962 6.83321 9.05296 6.35987 9.05296 5.77987C9.05296 5.19987 8.57962 4.72656 7.99962 4.72656Z" fill="#000"/>
<path d="M10.6663 11.6069C10.393 11.6069 10.1663 11.3802 10.1663 11.1069C10.1663 10.1869 9.19301 9.43359 7.99967 9.43359C6.80634 9.43359 5.83301 10.1869 5.83301 11.1069C5.83301 11.3802 5.60634 11.6069 5.33301 11.6069C5.05967 11.6069 4.83301 11.3802 4.83301 11.1069C4.83301 9.63356 6.25301 8.43359 7.99967 8.43359C9.74634 8.43359 11.1663 9.63356 11.1663 11.1069C11.1663 11.3802 10.9397 11.6069 10.6663 11.6069Z" fill="#000"/>
</svg>
