<svg width="18" height="18" viewBox="0 0 18 18" fill="none" xmlns="http://www.w3.org/2000/svg">
<path d="M5.9025 15.9601C5.31 15.9601 4.7475 15.8176 4.2525 15.5326C3.0825 14.8576 2.4375 13.4851 2.4375 11.6776V6.33011C2.4375 4.51511 3.0825 3.15011 4.2525 2.47511C5.4225 1.80011 6.93 1.92761 8.505 2.83511L13.1325 5.50511C14.7 6.41261 15.57 7.65761 15.57 9.00761C15.57 10.3576 14.7075 11.6026 13.1325 12.5101L8.505 15.1801C7.5975 15.6976 6.7125 15.9601 5.9025 15.9601ZM5.9025 3.16511C5.4975 3.16511 5.1375 3.25511 4.815 3.44261C4.005 3.90761 3.5625 4.93511 3.5625 6.33011V11.6701C3.5625 13.0651 4.005 14.0851 4.815 14.5576C5.625 15.0301 6.735 14.8951 7.9425 14.1976L12.57 11.5276C13.7775 10.8301 14.445 9.93761 14.445 9.00011C14.445 8.06261 13.7775 7.17011 12.57 6.47261L7.9425 3.80261C7.2075 3.38261 6.5175 3.16511 5.9025 3.16511Z" fill="#000"/>
</svg>
