<svg width="16" height="16" viewBox="0 0 16 16" fill="none" xmlns="http://www.w3.org/2000/svg">
<path d="M7.9799 15.1654C4.03323 15.1654 0.813232 11.952 0.813232 7.9987C0.813232 4.04536 4.03323 0.832031 7.9799 0.832031C11.9266 0.832031 15.1466 4.04536 15.1466 7.9987C15.1466 11.952 11.9332 15.1654 7.9799 15.1654ZM7.9799 1.83203C4.5799 1.83203 1.81323 4.5987 1.81323 7.9987C1.81323 11.3987 4.5799 14.1654 7.9799 14.1654C11.3799 14.1654 14.1466 11.3987 14.1466 7.9987C14.1466 4.5987 11.3799 1.83203 7.9799 1.83203Z" fill="#000"/>
<path d="M7.99993 11.3197C6.1666 11.3197 4.67993 9.83302 4.67993 7.99969C4.67993 6.16635 6.1666 4.67969 7.99993 4.67969C9.83327 4.67969 11.3199 6.16635 11.3199 7.99969C11.3199 9.83302 9.83327 11.3197 7.99993 11.3197ZM7.99993 5.67969C6.71993 5.67969 5.67993 6.71969 5.67993 7.99969C5.67993 9.27969 6.71993 10.3197 7.99993 10.3197C9.27993 10.3197 10.3199 9.27969 10.3199 7.99969C10.3199 6.71969 9.27993 5.67969 7.99993 5.67969Z" fill="#000"/>
</svg>
