<svg width="16" height="16" viewBox="0 0 16 16" fill="none" xmlns="http://www.w3.org/2000/svg">
<path d="M2.0735 10.9587V14.292Z" fill="#000"/>
<path d="M15.4168 7.9987C15.4168 7.58448 15.081 7.2487 14.6668 7.2487C14.2526 7.2487 13.9168 7.58448 13.9168 7.9987H15.4168ZM2.0735 10.9587V10.2087C1.65928 10.2087 1.3235 10.5445 1.3235 10.9587H2.0735ZM0.583496 7.9987C0.583496 8.41291 0.919283 8.7487 1.3335 8.7487C1.74771 8.7487 2.0835 8.41291 2.0835 7.9987H0.583496ZM14.6668 5.0387V5.7887C15.081 5.7887 15.4168 5.45291 15.4168 5.0387H14.6668ZM15.4168 1.70536C15.4168 1.29115 15.081 0.955365 14.6668 0.955365C14.2526 0.955365 13.9168 1.29115 13.9168 1.70536H15.4168ZM11.7068 4.2887C11.2926 4.2887 10.9568 4.62448 10.9568 5.0387C10.9568 5.45291 11.2926 5.7887 11.7068 5.7887V4.2887ZM5.08683 11.7087C5.50104 11.7087 5.83683 11.3729 5.83683 10.9587C5.83683 10.5445 5.50104 10.2087 5.08683 10.2087V11.7087ZM1.3235 14.292C1.3235 14.7062 1.65928 15.042 2.0735 15.042C2.48771 15.042 2.8235 14.7062 2.8235 14.292H1.3235ZM13.9168 7.9987C13.9168 11.2645 11.2659 13.9154 8.00016 13.9154V15.4154C12.0944 15.4154 15.4168 12.0929 15.4168 7.9987H13.9168ZM8.00016 13.9154C6.42062 13.9154 5.11151 13.1189 4.1607 12.2565C3.6901 11.8297 3.32384 11.4011 3.07583 11.0797C2.95225 10.9195 2.85917 10.7875 2.79827 10.6975C2.76785 10.6526 2.74554 10.6183 2.73156 10.5964C2.72457 10.5855 2.71966 10.5776 2.71687 10.5731C2.71548 10.5709 2.71461 10.5695 2.71428 10.569C2.71411 10.5687 2.71408 10.5686 2.71418 10.5688C2.71423 10.5689 2.71431 10.569 2.71443 10.5692C2.71449 10.5693 2.7146 10.5695 2.71463 10.5695C2.71475 10.5697 2.71488 10.5699 2.0735 10.9587C1.43211 11.3475 1.43226 11.3477 1.43242 11.3479C1.43248 11.3481 1.43264 11.3483 1.43277 11.3485C1.43302 11.3489 1.43331 11.3494 1.43364 11.35C1.43428 11.351 1.43507 11.3523 1.436 11.3538C1.43785 11.3568 1.44027 11.3607 1.44323 11.3655C1.44917 11.3751 1.45733 11.388 1.4677 11.4043C1.48842 11.4367 1.51797 11.482 1.55617 11.5384C1.63251 11.6512 1.7437 11.8087 1.88825 11.996C2.17649 12.3696 2.60189 12.8677 3.15296 13.3676C4.24548 14.3585 5.8997 15.4154 8.00016 15.4154V13.9154ZM2.0835 7.9987C2.0835 4.73095 4.70966 2.08203 8.00016 2.08203V0.582031C3.87733 0.582031 0.583496 3.90644 0.583496 7.9987H2.0835ZM8.00016 2.08203C10.0008 2.08203 11.5033 2.91269 12.5206 3.76128C13.0296 4.18596 13.4115 4.61093 13.6645 4.92765C13.7907 5.0856 13.8839 5.21541 13.9439 5.30311C13.9739 5.34692 13.9955 5.38009 14.0088 5.40087C14.0154 5.41126 14.02 5.41853 14.0224 5.42247C14.0236 5.42444 14.0243 5.42558 14.0245 5.42585C14.0246 5.42599 14.0245 5.42591 14.0243 5.42561C14.0242 5.42546 14.0241 5.42526 14.024 5.425C14.0239 5.42487 14.0238 5.42464 14.0237 5.42457C14.0236 5.42432 14.0234 5.42406 14.6668 5.0387C15.3103 4.65334 15.3101 4.65304 15.3099 4.65274C15.3098 4.65262 15.3096 4.6523 15.3095 4.65206C15.3092 4.65157 15.3089 4.65103 15.3085 4.65043C15.3078 4.64924 15.3069 4.64781 15.3059 4.64617C15.3039 4.64288 15.3014 4.6387 15.2982 4.63366C15.292 4.62357 15.2835 4.61003 15.2728 4.59327C15.2514 4.55975 15.221 4.51329 15.1816 4.45575C15.1029 4.34073 14.9879 4.18097 14.8365 3.99142C14.5343 3.61313 14.0832 3.11144 13.4814 2.60945C12.277 1.6047 10.4462 0.582031 8.00016 0.582031V2.08203ZM15.4168 5.0387V1.70536H13.9168V5.0387H15.4168ZM14.6668 4.2887H11.7068V5.7887H14.6668V4.2887ZM2.0735 11.7087H5.08683V10.2087H2.0735V11.7087ZM1.3235 10.9587V14.292H2.8235V10.9587H1.3235Z" fill="#000"/>
</svg>
