<svg width="16" height="16" viewBox="0 0 16 16" fill="none" xmlns="http://www.w3.org/2000/svg">
  <path d="M13.6134 8.14689C13.3401 8.14689 13.1134 7.92022 13.1134 7.64689V5.43359C13.1134 4.60693 12.4401 3.93359 11.6134 3.93359H2.38672C2.11339 3.93359 1.88672 3.70693 1.88672 3.43359C1.88672 3.16026 2.11339 2.93359 2.38672 2.93359H11.6134C12.9934 2.93359 14.1134 4.05359 14.1134 5.43359V7.64689C14.1134 7.92689 13.8867 8.14689 13.6134 8.14689Z" fill="#000" />
  <path d="M4.49339 6.04763C4.36672 6.04763 4.24006 6.00094 4.14006 5.90094L2.03339 3.79429C1.94005 3.70096 1.88672 3.57427 1.88672 3.44094C1.88672 3.30761 1.94005 3.18096 2.03339 3.08763L4.14006 0.980938C4.33339 0.787604 4.65339 0.787604 4.84672 0.980938C5.04005 1.17427 5.04005 1.49431 4.84672 1.68764L3.0934 3.44094L4.84672 5.19428C5.04005 5.38761 5.04005 5.70761 4.84672 5.90094C4.74672 5.99427 4.62005 6.04763 4.49339 6.04763Z" fill="#000" />
  <path d="M13.6134 13.061H4.38672C3.00672 13.061 1.88672 11.941 1.88672 10.561V8.34766C1.88672 8.07432 2.11339 7.84766 2.38672 7.84766C2.66005 7.84766 2.88672 8.07432 2.88672 8.34766V10.561C2.88672 11.3877 3.56005 12.061 4.38672 12.061H13.6134C13.8867 12.061 14.1134 12.2877 14.1134 12.561C14.1134 12.8343 13.8867 13.061 13.6134 13.061Z" fill="#000" />
  <path d="M11.5071 15.1648C11.3805 15.1648 11.2538 15.1181 11.1538 15.0181C10.9605 14.8248 10.9605 14.5048 11.1538 14.3114L12.9071 12.5581L11.1538 10.8048C10.9605 10.6115 10.9605 10.2915 11.1538 10.0981C11.3471 9.90479 11.6671 9.90479 11.8605 10.0981L13.9671 12.2048C14.0605 12.2981 14.1138 12.4248 14.1138 12.5581C14.1138 12.6915 14.0605 12.8181 13.9671 12.9114L11.8605 15.0181C11.7671 15.1181 11.6405 15.1648 11.5071 15.1648Z" fill="#000" />
</svg>
