<svg width="20" height="20" viewBox="0 0 20 20" fill="none" xmlns="http://www.w3.org/2000/svg">
<path d="M12.8277 6.24157L10.8321 3.24808C10.4362 2.65434 9.56377 2.65434 9.16795 3.24808L7.18198 6.22702C7.06376 6.40436 6.89197 6.53928 6.69168 6.61212L2.97566 7.9634C2.28809 8.21342 2.09296 9.09296 2.6103 9.6103L5.12951 12.1295C5.36154 12.3615 5.46497 12.6926 5.40627 13.0155L4.8418 16.1201C4.69743 16.9141 5.50473 17.5433 6.23948 17.2093L9.5862 15.6881C9.84912 15.5686 10.1509 15.5686 10.4138 15.6881L13.9346 17.2885C14.6329 17.6059 15.4138 17.0514 15.3443 16.2876L15.0348 12.8829C15.0124 12.6364 15.0822 12.3904 15.2307 12.1924L17.2171 9.54387C17.6119 9.01745 17.3994 8.25978 16.7885 8.01539L13.2884 6.61535C13.1006 6.54022 12.9399 6.40989 12.8277 6.24157Z" fill="white" stroke="white"/>
<path d="M14.7166 18.8932C14.2749 18.8932 13.7083 18.7516 12.9999 18.3349L10.5083 16.8599C10.2499 16.7099 9.74994 16.7099 9.49994 16.8599L6.99994 18.3349C5.52493 19.2099 4.65827 18.8599 4.2666 18.5766C3.88327 18.2932 3.28327 17.5682 3.67494 15.9016L4.2666 13.3432C4.33327 13.0766 4.19994 12.6182 3.99994 12.4182L1.93327 10.3516C0.899935 9.31823 0.983269 8.4349 1.12494 8.00156C1.2666 7.56823 1.7166 6.80156 3.14994 6.5599L5.80827 6.11823C6.05827 6.07656 6.4166 5.8099 6.52494 5.5849L7.99994 2.64323C8.6666 1.30156 9.5416 1.10156 9.99994 1.10156C10.4583 1.10156 11.3333 1.30156 11.9999 2.64323L13.4666 5.57656C13.5833 5.80156 13.9416 6.06823 14.1916 6.1099L16.8499 6.55156C18.2916 6.79323 18.7416 7.5599 18.8749 7.99323C19.0083 8.42656 19.0916 9.3099 18.0666 10.3432L15.9999 12.4182C15.7999 12.6182 15.6749 13.0682 15.7333 13.3432L16.3249 15.9016C16.7083 17.5682 16.1166 18.2932 15.7333 18.5766C15.5249 18.7266 15.1916 18.8932 14.7166 18.8932ZM9.99994 15.4932C10.4083 15.4932 10.8166 15.5932 11.1416 15.7849L13.6333 17.2599C14.3583 17.6932 14.8166 17.6932 14.9916 17.5682C15.1666 17.4432 15.2916 17.0016 15.1083 16.1849L14.5166 13.6266C14.3583 12.9349 14.6166 12.0432 15.1166 11.5349L17.1833 9.46823C17.5916 9.0599 17.7749 8.6599 17.6916 8.3849C17.5999 8.1099 17.2166 7.8849 16.6499 7.79323L13.9916 7.35156C13.3499 7.24323 12.6499 6.72656 12.3583 6.14323L10.8916 3.2099C10.6249 2.67656 10.2916 2.3599 9.99994 2.3599C9.70827 2.3599 9.37494 2.67656 9.1166 3.2099L7.6416 6.14323C7.34994 6.72656 6.64994 7.24323 6.00827 7.35156L3.35827 7.79323C2.7916 7.8849 2.40827 8.1099 2.3166 8.3849C2.22494 8.6599 2.4166 9.06823 2.82494 9.46823L4.8916 11.5349C5.3916 12.0349 5.64994 12.9349 5.4916 13.6266L4.89994 16.1849C4.70827 17.0099 4.8416 17.4432 5.0166 17.5682C5.1916 17.6932 5.6416 17.6849 6.37494 17.2599L8.8666 15.7849C9.18327 15.5932 9.5916 15.4932 9.99994 15.4932Z" fill="#E2E8F0"/>
</svg>
