<svg width="16" height="16" viewBox="0 0 16 16" fill="none" xmlns="http://www.w3.org/2000/svg">
<path d="M5.33301 3.83203C5.05967 3.83203 4.83301 3.60536 4.83301 3.33203V1.33203C4.83301 1.0587 5.05967 0.832031 5.33301 0.832031C5.60634 0.832031 5.83301 1.0587 5.83301 1.33203V3.33203C5.83301 3.60536 5.60634 3.83203 5.33301 3.83203Z" fill="#000"/>
<path d="M10.667 3.83203C10.3937 3.83203 10.167 3.60536 10.167 3.33203V1.33203C10.167 1.0587 10.3937 0.832031 10.667 0.832031C10.9403 0.832031 11.167 1.0587 11.167 1.33203V3.33203C11.167 3.60536 10.9403 3.83203 10.667 3.83203Z" fill="#000"/>
<path d="M9.78666 15.1654H5.33333C2.9 15.1654 1.5 13.7654 1.5 11.332V5.66536C1.5 3.23203 2.9 1.83203 5.33333 1.83203H10.6667C13.1 1.83203 14.5 3.23203 14.5 5.66536V9.08537C14.5 9.2787 14.3867 9.45203 14.22 9.5387C14.0467 9.6187 13.84 9.59868 13.6933 9.47868C12.64 8.63868 11.02 8.6387 9.96668 9.4987C9.24668 10.0654 8.84001 10.912 8.84001 11.8387C8.84001 12.3854 8.98667 12.9187 9.27334 13.3787C9.49334 13.7387 9.76667 14.0387 10.0867 14.2654C10.26 14.392 10.34 14.6187 10.2733 14.8254C10.1933 15.0254 10.0067 15.1654 9.78666 15.1654ZM5.33333 2.83203C3.42667 2.83203 2.5 3.7587 2.5 5.66536V11.332C2.5 13.2387 3.42667 14.1654 5.33333 14.1654H8.59334C8.52668 14.0787 8.46666 13.9854 8.41333 13.892C8.03333 13.2787 7.83333 12.5654 7.83333 11.832C7.83333 10.5987 8.38001 9.46537 9.34001 8.71204C10.48 7.78537 12.1667 7.58536 13.5 8.19869V5.66536C13.5 3.7587 12.5733 2.83203 10.6667 2.83203H5.33333V2.83203Z" fill="#000"/>
<path d="M8.66699 7.83203H4.66699C4.39366 7.83203 4.16699 7.60536 4.16699 7.33203C4.16699 7.0587 4.39366 6.83203 4.66699 6.83203H8.66699C8.94033 6.83203 9.16699 7.0587 9.16699 7.33203C9.16699 7.60536 8.94033 7.83203 8.66699 7.83203Z" fill="#000"/>
<path d="M6.41366 11.168H4.66699C4.39366 11.168 4.16699 10.9413 4.16699 10.668C4.16699 10.3946 4.39366 10.168 4.66699 10.168H6.41366C6.68699 10.168 6.91366 10.3946 6.91366 10.668C6.91366 10.9413 6.69366 11.168 6.41366 11.168Z" fill="#000"/>
<path d="M11.833 15.8333C10.9797 15.8333 10.173 15.5666 9.493 15.0733C9.06633 14.7666 8.69967 14.3667 8.413 13.8933C8.033 13.28 7.83301 12.5666 7.83301 11.8333C7.83301 10.6 8.37968 9.46665 9.33968 8.71332C10.7263 7.58665 12.913 7.57997 14.313 8.6933C15.2797 9.4533 15.833 10.6 15.833 11.8333C15.833 12.5666 15.633 13.28 15.253 13.8933C15.0397 14.26 14.7663 14.58 14.453 14.84C13.7397 15.48 12.8063 15.8333 11.833 15.8333ZM11.833 8.83332C11.153 8.83332 10.4863 9.06664 9.95968 9.49331C9.23968 10.06 8.83301 10.9066 8.83301 11.8333C8.83301 12.38 8.97967 12.9133 9.26634 13.3733C9.48634 13.7333 9.75967 14.0333 10.0797 14.26C10.593 14.6333 11.1997 14.8333 11.833 14.8333C12.573 14.8333 13.253 14.5733 13.7997 14.0867C14.0397 13.8867 14.233 13.6533 14.393 13.38C14.6797 12.9133 14.833 12.38 14.833 11.8333C14.833 10.9066 14.4197 10.0533 13.693 9.47996C13.1597 9.0533 12.5197 8.83332 11.833 8.83332Z" fill="#000"/>
<path d="M11.8337 14.0013C11.5603 14.0013 11.3337 13.7746 11.3337 13.5013C11.3337 12.8613 10.807 12.3346 10.167 12.3346C9.89366 12.3346 9.66699 12.108 9.66699 11.8346C9.66699 11.5613 9.89366 11.3346 10.167 11.3346C10.807 11.3346 11.3337 10.808 11.3337 10.168C11.3337 9.89464 11.5603 9.66797 11.8337 9.66797C12.107 9.66797 12.3337 9.89464 12.3337 10.168C12.3337 10.808 12.8603 11.3346 13.5003 11.3346C13.7737 11.3346 14.0003 11.5613 14.0003 11.8346C14.0003 12.108 13.7737 12.3346 13.5003 12.3346C12.8603 12.3346 12.3337 12.8613 12.3337 13.5013C12.3337 13.7746 12.107 14.0013 11.8337 14.0013ZM11.547 11.8346C11.647 11.9213 11.747 12.0146 11.8337 12.1213C11.9203 12.0213 12.0137 11.9213 12.1203 11.8346C12.0203 11.748 11.9203 11.6546 11.8337 11.548C11.747 11.6546 11.6537 11.748 11.547 11.8346Z" fill="#000"/>
</svg>
