<svg width="16" height="16" viewBox="0 0 16 16" fill="none" xmlns="http://www.w3.org/2000/svg">
<path d="M7.99935 15.1667C4.50602 15.1667 1.66602 12.3267 1.66602 8.83333C1.66602 5.34 4.50602 2.5 7.99935 2.5C11.4927 2.5 14.3327 5.34 14.3327 8.83333C14.3327 12.3267 11.4927 15.1667 7.99935 15.1667ZM7.99935 3.5C5.05935 3.5 2.66602 5.89333 2.66602 8.83333C2.66602 11.7733 5.05935 14.1667 7.99935 14.1667C10.9393 14.1667 13.3327 11.7733 13.3327 8.83333C13.3327 5.89333 10.9393 3.5 7.99935 3.5Z" fill="#425466"/>
<path d="M8 9.16536C7.72667 9.16536 7.5 8.9387 7.5 8.66536V5.33203C7.5 5.0587 7.72667 4.83203 8 4.83203C8.27333 4.83203 8.5 5.0587 8.5 5.33203V8.66536C8.5 8.9387 8.27333 9.16536 8 9.16536Z" fill="#425466"/>
<path d="M10 1.83203H6C5.72667 1.83203 5.5 1.60536 5.5 1.33203C5.5 1.0587 5.72667 0.832031 6 0.832031H10C10.2733 0.832031 10.5 1.0587 10.5 1.33203C10.5 1.60536 10.2733 1.83203 10 1.83203Z" fill="#425466"/>
</svg>
