<svg width="16" height="16" viewBox="0 0 16 16" fill="none" xmlns="http://www.w3.org/2000/svg">
    <path d="M8.00002 8.4987C5.88669 8.4987 4.16669 6.7787 4.16669 4.66536C4.16669 2.55203 5.88669 0.832031 8.00002 0.832031C10.1134 0.832031 11.8334 2.55203 11.8334 4.66536C11.8334 6.7787 10.1134 8.4987 8.00002 8.4987ZM8.00002 1.83203C6.44002 1.83203 5.16669 3.10536 5.16669 4.66536C5.16669 6.22536 6.44002 7.4987 8.00002 7.4987C9.56002 7.4987 10.8334 6.22536 10.8334 4.66536C10.8334 3.10536 9.56002 1.83203 8.00002 1.83203Z" fill="black" />
    <path d="M13.7268 15.1667C13.4534 15.1667 13.2268 14.94 13.2268 14.6667C13.2268 12.3667 10.8801 10.5 8.0001 10.5C5.1201 10.5 2.77344 12.3667 2.77344 14.6667C2.77344 14.94 2.54677 15.1667 2.27344 15.1667C2.0001 15.1667 1.77344 14.94 1.77344 14.6667C1.77344 11.82 4.56677 9.5 8.0001 9.5C11.4334 9.5 14.2268 11.82 14.2268 14.6667C14.2268 14.94 14.0001 15.1667 13.7268 15.1667Z" fill="black" />
</svg>