<svg width="16" height="16" viewBox="0 0 16 16" fill="none" xmlns="http://www.w3.org/2000/svg">
  <path d="M8.00033 8.4987C5.88699 8.4987 4.16699 6.7787 4.16699 4.66536C4.16699 2.55203 5.88699 0.832031 8.00033 0.832031C10.1137 0.832031 11.8337 2.55203 11.8337 4.66536C11.8337 6.7787 10.1137 8.4987 8.00033 8.4987ZM8.00033 1.83203C6.44033 1.83203 5.16699 3.10536 5.16699 4.66536C5.16699 6.22536 6.44033 7.4987 8.00033 7.4987C9.56033 7.4987 10.8337 6.22536 10.8337 4.66536C10.8337 3.10536 9.56033 1.83203 8.00033 1.83203Z" fill="#000" />
  <path d="M2.27344 15.1667C2.0001 15.1667 1.77344 14.94 1.77344 14.6667C1.77344 11.82 4.56677 9.5 8.0001 9.5C8.67344 9.5 9.33343 9.58668 9.97343 9.76668C10.2401 9.84002 10.3934 10.1133 10.3201 10.38C10.2468 10.6467 9.97343 10.8 9.70677 10.7267C9.1601 10.5734 8.58677 10.5 8.0001 10.5C5.1201 10.5 2.77344 12.3667 2.77344 14.6667C2.77344 14.94 2.54677 15.1667 2.27344 15.1667Z" fill="#000" />
  <path d="M11.9997 15.1654C11.213 15.1654 10.4663 14.872 9.88633 14.3454C9.653 14.1454 9.44634 13.8987 9.28634 13.6254C8.993 13.1454 8.83301 12.5787 8.83301 11.9987C8.83301 11.1654 9.15301 10.3854 9.72634 9.79203C10.3263 9.17203 11.133 8.83203 11.9997 8.83203C12.9063 8.83203 13.7663 9.21871 14.353 9.88538C14.873 10.4654 15.1663 11.212 15.1663 11.9987C15.1663 12.252 15.133 12.5054 15.0663 12.7454C14.9997 13.0454 14.873 13.3587 14.6997 13.632C14.1463 14.5787 13.1063 15.1654 11.9997 15.1654ZM11.9997 9.83203C11.4063 9.83203 10.8597 10.0654 10.4464 10.4854C10.053 10.892 9.83301 11.4254 9.83301 11.9987C9.83301 12.392 9.93968 12.7787 10.1463 13.112C10.253 13.2987 10.393 13.4653 10.553 13.6053C10.953 13.972 11.4663 14.172 11.9997 14.172C12.753 14.172 13.4663 13.772 13.853 13.1254C13.9663 12.9387 14.053 12.7254 14.0997 12.5187C14.1463 12.3454 14.1663 12.1787 14.1663 12.0054C14.1663 11.472 13.9663 10.9587 13.6063 10.5587C13.2063 10.092 12.6197 9.83203 11.9997 9.83203Z" fill="#000" />
  <path d="M13.0002 12.4883H11.0068C10.7335 12.4883 10.5068 12.2616 10.5068 11.9883C10.5068 11.7149 10.7335 11.4883 11.0068 11.4883H13.0002C13.2735 11.4883 13.5002 11.7149 13.5002 11.9883C13.5002 12.2616 13.2735 12.4883 13.0002 12.4883Z" fill="#000" />
  <path d="M12 13.505C11.7267 13.505 11.5 13.2784 11.5 13.005V11.0117C11.5 10.7384 11.7267 10.5117 12 10.5117C12.2733 10.5117 12.5 10.7384 12.5 11.0117V13.005C12.5 13.285 12.2733 13.505 12 13.505Z" fill="#000" />
</svg>
