<svg width="24" height="16" viewBox="0 0 24 16" fill="none" xmlns="http://www.w3.org/2000/svg">
<path d="M22.4995 0C22.1016 0 21.7199 0.153166 21.4385 0.425802C21.1571 0.698439 20.9991 1.06821 20.9991 1.45378V7.2689C20.9991 7.65446 20.841 8.02424 20.5596 8.29687C20.2782 8.56951 19.8965 8.72267 19.4986 8.72267H5.10911L7.05972 6.8473C7.34226 6.57355 7.501 6.20226 7.501 5.81512C7.501 5.42797 7.34226 5.05669 7.05972 4.78293C6.77718 4.50918 6.39397 4.35539 5.99439 4.35539C5.59481 4.35539 5.2116 4.50918 4.92906 4.78293L0.427654 9.14427C0.29105 9.28253 0.183969 9.44556 0.112555 9.62402C-0.0375184 9.97796 -0.0375184 10.375 0.112555 10.7289C0.183969 10.9073 0.29105 11.0704 0.427654 11.2086L4.92906 15.57C5.06854 15.7062 5.2345 15.8144 5.41734 15.8882C5.60019 15.962 5.79631 16 5.99439 16C6.19247 16 6.38859 15.962 6.57143 15.8882C6.75428 15.8144 6.92023 15.7062 7.05972 15.57C7.20036 15.4348 7.31198 15.274 7.38816 15.0969C7.46434 14.9197 7.50356 14.7297 7.50356 14.5378C7.50356 14.3459 7.46434 14.1559 7.38816 13.9787C7.31198 13.8015 7.20036 13.6408 7.05972 13.5056L5.10911 11.6302H19.4986C20.6924 11.6302 21.8374 11.1707 22.6816 10.3528C23.5257 9.53492 24 8.42559 24 7.2689V1.45378C24 1.06821 23.8419 0.698439 23.5605 0.425802C23.2791 0.153166 22.8975 0 22.4995 0Z" fill="#000"/>
</svg>
