<svg width="93" height="153" viewBox="0 0 93 153" fill="none" xmlns="http://www.w3.org/2000/svg">
<path d="M10.0195 14.0352V124.944C10.0195 133.618 13.7771 140.827 20.8893 145.794C27.297 150.269 36.3387 152.732 46.3465 152.732C56.3542 152.732 65.3959 150.269 71.8036 145.794C78.9158 140.829 82.6734 133.621 82.6734 124.944V14.0352H10.0195Z" fill="#EDF2F7"/>
<path d="M46.3457 152.999C36.2819 152.999 27.1868 150.516 20.7365 146.012C13.5496 140.994 9.75195 133.707 9.75195 124.943V13.7656H82.9396V124.943C82.9396 133.71 79.1419 140.996 71.955 146.012C65.5047 150.516 56.4096 152.999 46.3457 152.999ZM10.2857 14.3012V124.943C10.2857 133.525 14.0059 140.659 21.0407 145.573C27.403 150.015 36.3913 152.463 46.3457 152.463C56.3002 152.463 65.2885 150.015 71.6508 145.573C78.6882 140.662 82.4058 133.528 82.4058 124.943V14.3012H10.2857Z" fill="#CBD5E0"/>
<path d="M25.2736 9.13281H18.3535V55.1091H21.9777H25.2736V9.13281Z" fill="#E2E8F0"/>
<path d="M17.8184 8.59766V55.1095H18.0852H18.3521V9.13323H25.2722V55.1095H25.539H25.8059V8.59766H17.8184Z" fill="#CBD5E0"/>
<path d="M30.8044 15.5496L28.9363 15.5469C28.9363 18.289 28.9363 41.166 28.9336 56.0389H30.8151C30.8097 41.1633 30.8071 18.289 30.8044 15.5496Z" fill="#E2E8F0"/>
<path d="M31.3387 15.2822V15.0144L28.4031 15.0117V15.2795C28.4031 15.6196 28.4031 40.3068 28.4004 56.0393H28.6673H28.9341C28.9368 41.1664 28.9368 18.2894 28.9368 15.5473L30.8049 15.55C30.8049 18.2894 30.8103 41.1664 30.8156 56.0393H31.0825H31.3494C31.344 40.3068 31.3387 15.6249 31.3387 15.2822Z" fill="#CBD5E0"/>
<path d="M79.0115 58.8226L78.8353 58.7289C78.8353 58.7289 75.5821 56.5411 66.0788 54.8326C56.8049 53.1643 44.5153 53.8257 35.6658 55.4485C35.7458 55.4673 35.583 55.4271 35.6658 55.4485C34.7023 55.2075 34.0245 55.0575 33.1411 54.8701C14.6281 50.9765 13.6753 58.7021 13.6753 58.7021V71.5987H13.6406V123.849C13.6406 131.658 17.0246 138.146 23.4242 142.616C29.1914 146.643 37.3311 148.86 46.3381 148.86C55.3451 148.86 63.4847 146.643 69.2519 142.616C75.6542 138.146 79.0355 131.658 79.0355 123.849V71.5987H79.0008V58.8226H79.0115Z" fill="#EFD770"/>
<path d="M79.2516 71.3574V58.6777L78.9687 58.525C78.8353 58.434 75.5661 56.2917 66.1214 54.5913C56.0255 52.7757 43.4237 53.7826 35.6737 55.1991C34.6996 54.9581 34.0244 54.8082 33.1918 54.6314C22.8077 52.4463 17.9132 53.9352 15.6368 55.566C13.6673 56.9772 13.4458 58.6 13.4378 58.667L13.4351 71.352L13.4004 123.844C13.4004 131.735 16.8191 138.291 23.2881 142.808C29.0953 146.862 37.283 149.096 46.3407 149.096C55.3984 149.096 63.5861 146.862 69.3933 142.808C75.8623 138.291 79.281 131.733 79.281 123.844L79.2516 71.3574ZM35.6097 55.6812L35.8685 55.7428L35.8899 55.6517C43.6106 54.2539 56.0602 53.2738 66.036 55.0679C75.3579 56.7443 78.6672 58.9053 78.7205 58.9401L78.7712 58.9669V71.8394L78.8059 123.849C78.8059 131.575 75.4567 137.996 69.1237 142.417C63.3966 146.415 55.3077 148.619 46.346 148.619C37.3844 148.619 29.2954 146.418 23.5683 142.417C17.2354 137.996 13.8861 131.575 13.8861 123.849V71.8394L13.9208 58.7205C13.9448 58.5733 14.2224 57.17 15.941 55.9463C18.1427 54.3797 22.9065 52.9631 33.0957 55.1054C33.5894 55.2099 34.0271 55.3036 34.5075 55.4161C34.5048 55.4161 35.6097 55.6812 35.6097 55.6812Z" fill="#C6B25D"/>
<path d="M78.4294 60.039L78.771 58.9678C78.771 58.9678 75.3283 56.7425 65.8249 55.034C56.551 53.3657 44.4589 54.0593 35.6094 55.6848C38.9907 56.4961 43.3247 58.0895 48.0964 60.0175C71.3252 69.3927 77.2284 62.6284 78.4294 60.039Z" fill="#F8E594"/>
<path d="M49.4414 132.352C52.9134 132.925 54.915 134.034 54.915 134.727C54.915 135.694 51.024 137.472 44.667 137.472C43.2579 137.472 41.8942 137.295 40.5945 136.95C38.6544 136.433 36.9971 135.715 35.6734 134.818C32.9299 132.957 31.9345 130.561 31.3206 128.458C30.9444 127.165 30.8936 125.475 30.8883 124.318C30.8723 119.865 30.883 112.482 30.8936 104.666C30.907 94.7869 30.923 83.5881 30.8883 76.0472V71.3904C30.8856 70.5629 30.8803 65.4643 30.8776 58.7188H28.9962C28.9962 65.467 28.9935 70.5656 28.9935 71.3904C28.9802 83.5077 28.9561 112.916 28.9988 124.23C29.0335 133.437 33.92 138.704 43.1352 139.47H43.1458L43.2152 139.472C43.7143 139.499 44.16 139.513 44.5763 139.513C50.4929 139.513 56.7805 137.836 56.7805 134.727C56.7805 132.941 54.7282 131.867 53.0068 131.278C52.281 131.029 51.4563 130.818 50.565 130.646C50.4582 131.326 50.0766 131.907 49.4414 132.352Z" fill="#EFD770"/>
<path d="M42.611 130.172C40.9724 130.268 39.4165 130.48 38.0315 130.801C37.5324 130.916 37.1481 131.291 37.052 131.755C36.988 132.06 37.0601 132.333 37.2575 132.52C37.463 132.719 37.7699 132.796 38.0582 132.721C39.606 132.325 41.4234 132.084 43.3716 132.012C42.8699 131.53 42.611 130.938 42.611 130.242V130.172Z" fill="#EDD56E"/>
<path d="M43.6739 132.265C43.5645 132.185 43.4631 132.099 43.3723 132.008C41.4268 132.083 39.6094 132.321 38.0589 132.718C37.7706 132.79 37.4664 132.715 37.2583 132.517C37.0608 132.327 36.9887 132.056 37.0528 131.751C37.1488 131.288 37.5331 130.913 38.0322 130.798C39.4146 130.476 40.9731 130.267 42.6117 130.168V129.901V129.633C40.9331 129.732 39.3345 129.946 37.9121 130.276C37.2129 130.439 36.6711 130.974 36.5297 131.641C36.4283 132.126 36.559 132.587 36.8873 132.905C37.2262 133.229 37.7226 133.358 38.187 133.24C39.879 132.809 41.9019 132.565 44.0662 132.525C43.9248 132.445 43.7967 132.356 43.6739 132.265Z" fill="#D6C26E"/>
<path d="M41.1204 104.894L45.7614 106.517L52.935 99.6694C52.935 99.6694 46.6741 89.1534 33.8027 93.0363L41.1204 104.894Z" fill="#EFD770"/>
<path d="M45.8282 106.823L40.9417 105.115L33.3945 92.8799L33.7281 92.7781C40.4774 90.7429 45.4039 92.6844 48.3475 94.674C51.534 96.827 53.1005 99.4219 53.1672 99.5317L53.2767 99.7164L45.8282 106.823ZM41.2993 104.673L45.6974 106.21L52.5935 99.6281C52.1798 99.0041 50.656 96.8752 48.0299 95.1078C45.2331 93.2253 40.5841 91.3856 34.2165 93.1958L41.2993 104.673Z" fill="#D6C26E"/>
<path d="M50.5998 130.091V130.238C50.5998 130.284 50.5918 130.329 50.5918 130.375C50.5865 130.466 50.5812 130.557 50.5678 130.645C51.4565 130.82 52.2812 131.031 53.0097 131.277C54.7311 131.864 56.7833 132.94 56.7833 134.727C56.7833 137.836 50.4958 139.512 44.5792 139.512C44.1628 139.512 43.7172 139.498 43.2181 139.472L43.1487 139.469H43.138C33.9255 138.706 29.0364 133.436 29.0017 124.229C28.959 112.915 28.983 83.507 28.9964 71.3897C28.9964 70.5649 28.9537 61.0852 28.9537 54.337H28.6868L28.4199 54.2031C28.4199 60.9487 28.4653 70.5649 28.4626 71.3897C28.4493 83.507 28.4253 112.915 28.468 124.232C28.5027 133.76 33.5599 139.212 43.0953 140.002L43.5277 140.034L43.525 140.023C43.9013 140.039 44.2482 140.047 44.5792 140.047C47.7283 140.047 50.848 139.579 53.1405 138.765C55.8733 137.793 57.3171 136.397 57.3171 134.727C57.3144 132.324 54.4188 130.817 50.5998 130.091Z" fill="#D6C26E"/>
<path d="M49.4408 132.35C49.3394 132.422 49.2327 132.489 49.1179 132.554C49.1126 132.556 49.1046 132.559 49.0992 132.564C48.9498 132.647 48.8003 132.714 48.6456 132.77C52.2777 133.258 54.2232 134.318 54.378 134.725C54.1752 135.261 50.8633 136.935 44.6451 136.935C43.3027 136.935 41.987 136.763 40.7301 136.431C38.8459 135.93 37.2447 135.237 35.9717 134.372C33.3777 132.61 32.449 130.417 31.8325 128.306C31.4322 126.938 31.4242 124.962 31.4242 124.314C31.4082 119.86 31.4188 112.48 31.4295 104.664C31.4428 94.785 31.4589 83.5861 31.4242 76.0453V71.3885C31.4215 70.561 31.3548 61.0358 31.3521 54.293H31.0852H30.8184C30.821 61.0385 30.8851 70.5637 30.8904 71.3911V76.0479C30.9278 83.5888 30.9091 94.785 30.8958 104.666C30.8851 112.483 30.8744 119.863 30.8904 124.319C30.8958 125.479 30.9438 127.168 31.3228 128.459C31.9366 130.559 32.932 132.955 35.6755 134.819C36.9992 135.719 38.6565 136.436 40.5966 136.951C41.8963 137.296 43.26 137.473 44.6691 137.473C51.0261 137.473 54.9171 135.697 54.9171 134.728C54.9118 134.032 52.9129 132.923 49.4408 132.35Z" fill="#D6C26E"/>
<path d="M60.0281 117.632C60.1962 117.653 60.4898 117.672 60.7486 117.672C61.0075 117.672 61.3011 117.656 61.4692 117.632V65.3945H60.0254V117.632H60.0281Z" fill="#EFD770"/>
<path d="M61.7378 63.3147H61.471V117.603C61.3028 117.627 61.0093 117.646 60.7504 117.646C60.4915 117.646 60.198 117.627 60.0298 117.603V62.988L59.763 62.8086H59.4961V117.796C59.4961 118.074 59.6829 118.206 60.7504 118.206C61.8179 118.206 62.0047 118.074 62.0047 117.796V63.3147H61.7378Z" fill="#D6C26E"/>
<path d="M68.4889 78.636C68.7477 78.636 69.044 78.6172 69.2094 78.5904V64.7539H67.7656V78.5904C67.9338 78.6172 68.2273 78.636 68.4889 78.636Z" fill="#EFD770"/>
<path d="M71.9605 64.7539H71.6936V78.5904C71.5255 78.6172 71.2319 78.636 70.9731 78.636C70.7142 78.636 70.418 78.6172 70.2525 78.5904V64.7539H69.9856H69.7188V78.7779C69.7188 79.0055 69.8122 79.1956 70.9731 79.1956C72.134 79.1956 72.2274 79.0055 72.2274 78.7779V64.7539H71.9605Z" fill="#D6C26E"/>
<path d="M43.1445 57.8359V129.565V129.836V130.109V130.205C43.1445 130.947 43.4995 131.525 44.2174 131.975C44.2601 132.002 44.3001 132.032 44.3481 132.058C44.4762 132.131 44.6017 132.192 44.7298 132.24C45.1141 132.39 45.5224 132.455 46.1095 132.511C46.1949 132.519 46.2803 132.522 46.3657 132.522H46.9448C47.0009 132.522 47.0596 132.519 47.1156 132.514C47.4065 132.489 47.6761 132.455 47.9269 132.404C48.1538 132.358 48.3673 132.297 48.5701 132.211C48.6688 132.171 48.7622 132.125 48.8583 132.072C49.5522 131.678 49.9472 131.156 50.0432 130.516C50.0566 130.428 50.0646 130.336 50.0646 130.243C50.0646 130.229 50.0673 130.216 50.0673 130.203V129.956V60.4924L43.1445 57.8359Z" fill="#EFD770"/>
<path d="M50.5782 105.475L47.5332 109.717L50.3701 117.126C50.3701 117.126 63.0066 109.717 64.9067 99.3398L50.5782 105.475Z" fill="#EFD770"/>
<path d="M50.234 117.522L47.2344 109.681L50.4075 105.26L65.2591 98.9023L65.1683 99.3924C63.2682 109.769 50.6317 117.286 50.5036 117.361L50.234 117.522ZM47.8348 109.758L50.5036 116.734C52.305 115.61 62.5663 108.843 64.5438 99.7914L50.7518 105.693L47.8348 109.758Z" fill="#D6C26E"/>
<path d="M50.1894 60.673L50.0053 60.4936L50.0667 129.957V130.204C50.0667 130.217 50.064 130.231 50.064 130.244C50.0613 130.338 50.056 130.429 50.0427 130.517C49.9466 131.16 49.5516 131.682 48.8577 132.073C48.7643 132.126 48.6683 132.169 48.5695 132.212C48.3667 132.298 48.1532 132.359 47.9263 132.405C47.6755 132.456 47.4059 132.488 47.115 132.515C47.059 132.52 47.0003 132.523 46.9442 132.523H46.3651C46.2797 132.523 46.1943 132.52 46.1089 132.512C45.5191 132.456 45.1108 132.392 44.7292 132.242C44.6011 132.191 44.4757 132.132 44.3476 132.06C44.3022 132.033 44.2622 132.006 44.2168 131.977C43.4989 131.527 43.144 130.948 43.144 130.206V130.11V129.84V129.569L43.0826 57.8398H42.8157H42.5488L42.6102 129.596V129.866V130.137V130.206C42.6102 130.911 42.8691 131.511 43.3708 131.998C43.4642 132.089 43.5629 132.175 43.6724 132.258C43.7951 132.349 43.9259 132.437 44.0673 132.52C44.0727 132.523 44.078 132.528 44.086 132.531C44.7345 132.9 45.3377 132.981 46.0582 133.05C46.1596 133.061 46.2637 133.064 46.3651 133.064H46.9442C47.0163 133.064 47.0884 133.061 47.1604 133.056C47.7128 133.01 48.1932 132.935 48.6442 132.766C48.799 132.708 48.9485 132.641 49.0979 132.558C49.1033 132.555 49.1113 132.552 49.1166 132.547C49.2314 132.483 49.3381 132.413 49.4395 132.341C50.0773 131.891 50.4563 131.302 50.5657 130.613C50.5791 130.525 50.5871 130.431 50.5897 130.34C50.5924 130.295 50.5978 130.249 50.5978 130.204V130.054L50.5364 60.6918L50.1894 60.673Z" fill="#D6C26E"/>
<path d="M69.7148 13.832V57.4384H69.9817H70.2486V14.4024H71.6924V57.4384H71.9593H72.2261V13.832H69.7148Z" fill="#CBD5E0"/>
<path d="M71.6938 14.4023H70.25V57.4383H71.6938V14.4023Z" fill="#E2E8F0"/>
<path d="M71.6918 57.4375H70.248V64.7561H71.6918V57.4375Z" fill="#F4DD7D"/>
<path d="M72.2273 64.7106V57.3438L71.9603 57.4375H71.6934V64.7106H72.2273Z" fill="#D6C26E"/>
<path d="M70.2488 57.4375H69.9818L69.7148 57.3438V64.7534H70.2488V57.4375Z" fill="#D6C26E"/>
<path d="M72.2288 57.3438C72.2288 57.3438 71.6684 57.9492 70.9772 57.9492C70.286 57.9492 69.7148 57.3438 69.7148 57.3438C69.7148 57.3438 70.286 57.4214 70.9772 57.4214C71.6684 57.4214 72.2288 57.3438 72.2288 57.3438Z" fill="#FFFAE3"/>
<path d="M59.4922 13.832V57.4384H59.7591H60.0259V14.4024H61.4697V57.4384H61.7366H62.0035V13.832H59.4922Z" fill="#CBD5E0"/>
<path d="M61.4692 14.4023H60.0254V57.4383H61.4692V14.4023Z" fill="#E2E8F0"/>
<path d="M61.4692 63.2538V57.4375H60.0254V62.9887L61.4692 63.2538Z" fill="#F4DD7D"/>
<path d="M62.0047 63.3582V57.3438L61.7377 57.4375H61.4707V63.3582H62.0047Z" fill="#D6C26E"/>
<path d="M60.0261 57.4375H59.7592L59.4922 57.3438V62.9271H60.0261V57.4375Z" fill="#D6C26E"/>
<path d="M62.0061 57.3438C62.0061 57.3438 61.4457 57.9492 60.7545 57.9492C60.0633 57.9492 59.4922 57.3438 59.4922 57.3438C59.4922 57.3438 60.0633 57.4214 60.7545 57.4214C61.4457 57.4214 62.0061 57.3438 62.0061 57.3438Z" fill="#FFFAE3"/>
<path d="M50.2709 60.6116V56.0352H43.084V57.9686L50.2709 60.6116Z" fill="#F4DD7D"/>
<path d="M50.5379 60.9597V55.9414L50.2709 56.0351H50.0039V60.7053L50.5379 60.9597Z" fill="#D6C26E"/>
<path d="M43.0847 56.0351H42.8178L42.5508 55.9414V57.8347L43.0847 58.1185V56.0351Z" fill="#D6C26E"/>
<path d="M50.004 15.6484H43.084V56.0869L46.7081 56.1779L50.004 56.0869V15.6484Z" fill="#E2E8F0"/>
<path d="M42.5508 15.1094V56.0352L42.8177 56.07L43.0845 56.0834V15.6449H50.0046V56.07H50.2715L50.5383 56.0352V15.1094H42.5508Z" fill="#CBD5E0"/>
<path d="M18.4141 54.773V123.051V123.321V123.591V123.688C18.4141 124.43 18.769 125.008 19.4869 125.458C19.5296 125.485 19.5696 125.514 19.6177 125.541C19.7458 125.613 19.8712 125.675 19.9993 125.723C20.3836 125.873 20.7919 125.937 21.379 125.994C21.4644 126.002 21.5498 126.004 21.6352 126.004H22.2144C22.2704 126.004 22.3291 126.002 22.3852 125.996C22.676 125.972 22.9456 125.937 23.1964 125.886C23.4233 125.841 23.6368 125.779 23.8396 125.694C23.9384 125.653 24.0318 125.608 24.1278 125.554C24.8217 125.161 25.2167 124.639 25.3128 123.999C25.3261 123.91 25.3341 123.819 25.3341 123.725C25.3341 123.712 25.3368 123.699 25.3368 123.685V123.439L25.4862 54.125L18.4141 54.773Z" fill="#EFD770"/>
<path d="M25.5257 54.043C25.4563 54.043 25.2748 54.043 25.2748 54.043L25.3362 123.443V123.689C25.3362 123.702 25.3335 123.716 25.3335 123.729C25.3309 123.823 25.3255 123.914 25.3122 124.002C25.2161 124.645 24.8211 125.167 24.1273 125.558C24.0339 125.612 23.9378 125.654 23.839 125.697C23.6362 125.783 23.4227 125.845 23.1959 125.89C22.945 125.941 22.6755 125.973 22.3846 126C22.3285 126.005 22.2698 126.008 22.2138 126.008H21.6347C21.5493 126.008 21.4639 126.005 21.3785 125.997C20.7887 125.941 20.3804 125.877 19.9987 125.727C19.8706 125.676 19.7452 125.617 19.6171 125.545C19.5717 125.518 19.5317 125.491 19.4863 125.462C18.7684 125.012 18.4135 124.433 18.4135 123.692V123.595V123.325V123.054V54.7713C18.4135 54.7713 18.1786 54.8008 18.1039 54.8222C18.0292 54.8463 17.8184 54.9588 17.8184 54.9588L17.8797 123.076V123.346V123.617V123.686C17.8797 124.39 18.1386 124.99 18.6403 125.478C18.7337 125.569 18.8325 125.654 18.9419 125.737C19.0647 125.828 19.1954 125.917 19.3369 126C19.3422 126.003 19.3475 126.008 19.3556 126.011C20.0041 126.38 20.6072 126.46 21.3278 126.53C21.4292 126.541 21.5332 126.543 21.6347 126.543H22.2138C22.2858 126.543 22.3579 126.541 22.4299 126.535C22.9824 126.49 23.4627 126.415 23.9138 126.246C24.0686 126.187 24.218 126.12 24.3675 126.037C24.3728 126.035 24.3808 126.032 24.3861 126.027C24.5009 125.962 24.6076 125.893 24.7091 125.82C25.3469 125.371 25.7258 124.781 25.8353 124.093C25.8486 124.005 25.8566 123.911 25.8593 123.82C25.8619 123.775 25.8673 123.729 25.8673 123.684V123.534L25.8059 54.0644C25.8059 54.0697 25.5897 54.043 25.5257 54.043Z" fill="#D6C26E"/>
<path d="M50.539 56.0352C50.539 56.0352 48.759 56.6406 46.5599 56.6406C44.3636 56.6406 42.5488 56.0352 42.5488 56.0352C42.5488 56.0352 44.3609 56.1128 46.5599 56.1128C48.759 56.1102 50.539 56.0352 50.539 56.0352Z" fill="#FFFAE3"/>
<path d="M69.1821 65.0973C62.8411 65.0973 61.0397 64.4546 51.6538 61.375C51.2588 61.2465 50.5489 60.9626 49.6496 60.6172C47.7494 59.8835 44.9712 58.7427 42.2651 57.8349C38.5503 56.5897 35.5933 55.6739 35.5586 55.6658L36.0256 55.6016C36.0603 55.6096 38.5476 56.188 42.2732 57.4386C44.9846 58.3464 47.8428 59.6371 49.7456 60.3708C50.645 60.7163 51.3682 60.9573 51.7418 61.126C55.0564 62.6256 68.7951 66.4737 74.9332 63.2013C74.9706 63.1826 78.5761 61.1126 78.7228 58.9355L78.7735 58.9623C78.6188 61.2813 75.2108 63.3486 75.0667 63.4316C73.6576 64.2698 71.3891 65.0973 69.1821 65.0973Z" fill="#FFFAE3"/>
<path d="M44.6006 111.206L46.2179 106.55L39.3939 99.3516C39.3939 99.3516 28.9137 105.634 32.7834 118.549L44.6006 111.206Z" fill="#EFD770"/>
<path d="M32.628 118.958L32.5266 118.623C30.4984 111.851 32.4359 106.908 34.4161 103.954C36.5617 100.756 39.1478 99.1846 39.2572 99.1176L39.4413 99.0078L46.5242 106.479L44.8215 111.382L32.628 118.958ZM39.3533 99.6933C38.7314 100.108 36.6098 101.637 34.8484 104.273C32.9723 107.079 31.1389 111.744 32.9429 118.133L44.3812 111.029L45.9157 106.616L39.3533 99.6933Z" fill="#D6C26E"/>
<path d="M72.6647 12.8367C65.3284 13.3884 56.1505 13.7151 46.1908 13.7151C36.231 13.7151 27.0559 13.3884 19.7169 12.8367C9.33012 12.0575 2.62891 10.831 2.62891 9.44922V13.9561C2.62891 16.3126 22.1321 18.7575 46.1908 18.7575C70.2495 18.7575 89.7527 16.3126 89.7527 13.9561V9.44922C89.7527 10.831 83.0515 12.0575 72.6647 12.8367Z" fill="#EDF2F7"/>
<path d="M46.1901 19.0253C34.8319 19.0253 23.8794 18.487 15.3554 17.5069C6.73273 16.5161 2.36133 15.3218 2.36133 13.9561V9.44922H2.89508C2.89508 10.1401 6.44184 11.5728 19.7348 12.5689C27.3728 13.142 36.5212 13.4473 46.1901 13.4473C55.8616 13.4473 65.0101 13.1447 72.6427 12.5689C85.9357 11.5701 89.4824 10.1374 89.4824 9.44922H90.0162V13.9561C90.0162 15.3218 85.6448 16.5161 77.0194 17.5069C68.5008 18.487 57.5509 19.0253 46.1901 19.0253ZM2.89508 10.2606V13.9561C2.89508 14.5425 5.53179 15.8386 15.4168 16.974C23.9221 17.9514 34.8506 18.4897 46.1901 18.4897C57.5296 18.4897 68.4581 17.9514 76.9634 16.974C86.8484 15.8386 89.4851 14.5425 89.4851 13.9561V10.2606C88.89 10.6757 87.657 11.147 85.1537 11.6317C82.2021 12.2047 77.8921 12.7135 72.6854 13.1045C65.0368 13.6802 55.875 13.9828 46.1901 13.9828C36.5079 13.9828 27.3461 13.6776 19.6975 13.1045C14.4908 12.7135 10.1781 12.2047 7.22645 11.6317C4.72317 11.147 3.49021 10.673 2.89508 10.2606Z" fill="#CBD5E0"/>
<path d="M46.3461 0.269531C20.897 0.269531 0.267578 2.76262 0.267578 5.83949V9.86432C0.267578 12.9412 20.897 15.4343 46.3461 15.4343C71.7952 15.4343 92.4246 12.9412 92.4246 9.86432V5.83949C92.4246 2.76262 71.7926 0.269531 46.3461 0.269531Z" fill="#EDF2F7"/>
<path d="M46.3454 15.7003C34.0265 15.7003 22.4441 15.1192 13.7307 14.0668C4.6196 12.9662 0 11.5496 0 9.86258V5.83774C0 4.14801 4.6196 2.7341 13.7307 1.6335C22.4441 0.581094 34.0265 0 46.3454 0C58.6643 0 70.2467 0.581094 78.9601 1.6335C88.0712 2.7341 92.6908 4.15069 92.6908 5.83774V9.86258C92.6908 11.5523 88.0712 12.9662 78.9601 14.0668C70.2467 15.1192 58.6643 15.7003 46.3454 15.7003ZM46.3454 0.535573C34.0478 0.535573 22.4868 1.11399 13.7947 2.16372C4.01646 3.34465 0.533749 4.83622 0.533749 5.83774V9.86258C0.533749 10.8641 4.01646 12.353 13.7947 13.5366C22.4868 14.5863 34.0478 15.1647 46.3454 15.1647C58.643 15.1647 70.2039 14.5863 78.896 13.5366C88.6743 12.3557 92.157 10.8641 92.157 9.86258V5.83774C92.157 4.83622 88.6743 3.34733 78.896 2.16372C70.2039 1.11399 58.643 0.535573 46.3454 0.535573Z" fill="#CBD5E0"/>
<path d="M46.3453 2.21094C24.6164 2.21094 7 3.83372 7 5.83676C7 7.00967 13.0527 8.05404 22.4333 8.71547C29.0598 9.1841 37.3489 9.4626 46.3453 9.4626C55.3416 9.4626 63.6281 9.1841 70.2572 8.71547C79.6405 8.05404 85.6906 7.00967 85.6906 5.83676C85.6879 3.83372 68.0742 2.21094 46.3453 2.21094Z" fill="#CBD5E0"/>
</svg>
